M48
;DRILL file {KiCad 4.0.6-e0-6349~53~ubuntu14.04.1} date Sun Jul 30 17:29:58 2017
;FORMAT={2:4/ absolute / inch / suppress leading zeros}
FMAT,2
INCH,TZ
T1C0.013
T2C0.031
T3C0.039
%
G90
G05
M72
T1
X44900Y-22200
X45300Y-19500
X45325Y-18625
X45425Y-21200
X45675Y-22550
X45900Y-19750
X46675Y-16750
X46700Y-16275
X46725Y-15750
X46725Y-19750
X47400Y-16750
X47400Y-17725
X47425Y-18250
X48275Y-23275
X48700Y-19350
X48700Y-20525
X48775Y-21050
X48775Y-21550
X48775Y-22050
X49025Y-19975
X49025Y-22825
X49100Y-17175
X49125Y-20750
X49300Y-19700
X50225Y-19375
X50225Y-20525
X50275Y-17175
X50300Y-18225
X50300Y-24875
X51550Y-24350
X51850Y-18800
X51850Y-21075
X51900Y-23275
X51950Y-17600
X51950Y-19950
X51975Y-22200
X51975Y-24325
T2
X46100Y-24100
X48069Y-24100
T3
X42975Y-15925
X42975Y-16925
X42975Y-17925
X42975Y-18925
X42975Y-21925
X42975Y-22925
X42975Y-23925
X42975Y-24925
X43975Y-16925
X43975Y-17925
X43975Y-18925
X43975Y-19925
X43975Y-20925
X43975Y-21925
X43975Y-22925
X43975Y-23925
T0
M30
