G04 #@! TF.FileFunction,Copper,L1,Top,Signal*
%FSLAX46Y46*%
G04 Gerber Fmt 4.6, Leading zero omitted, Abs format (unit mm)*
G04 Created by KiCad (PCBNEW 4.0.6-e0-6349~53~ubuntu14.04.1) date Sun Jul 30 17:28:50 2017*
%MOMM*%
%LPD*%
G01*
G04 APERTURE LIST*
%ADD10C,0.100000*%
%ADD11R,1.200000X1.200000*%
%ADD12R,1.600000X1.600000*%
%ADD13C,1.600000*%
%ADD14R,1.700000X1.700000*%
%ADD15O,1.700000X1.700000*%
%ADD16R,1.550000X0.600000*%
%ADD17R,1.500000X0.600000*%
%ADD18C,0.685800*%
%ADD19C,0.152400*%
%ADD20C,0.609600*%
%ADD21C,0.304800*%
G04 APERTURE END LIST*
D10*
D11*
X129646500Y-63182500D03*
X131846500Y-63182500D03*
X129646500Y-60388500D03*
X131846500Y-60388500D03*
X129646500Y-57848500D03*
X131846500Y-57848500D03*
X129646500Y-55054500D03*
X131846500Y-55054500D03*
X129519500Y-52133500D03*
X131719500Y-52133500D03*
X129519500Y-49212500D03*
X131719500Y-49212500D03*
X129519500Y-46291500D03*
X131719500Y-46291500D03*
X129456000Y-43243500D03*
X131656000Y-43243500D03*
D12*
X117094000Y-61214000D03*
D13*
X122094000Y-61214000D03*
D14*
X109156500Y-40449500D03*
D15*
X109156500Y-42989500D03*
X111696500Y-42989500D03*
X109156500Y-45529500D03*
X111696500Y-45529500D03*
X109156500Y-48069500D03*
X111696500Y-48069500D03*
X111696500Y-50609500D03*
X111696500Y-53149500D03*
X109156500Y-55689500D03*
X111696500Y-55689500D03*
X109156500Y-58229500D03*
X111696500Y-58229500D03*
X109156500Y-60769500D03*
X111696500Y-60769500D03*
X109156500Y-63309500D03*
D16*
X116807000Y-52197000D03*
X116807000Y-53467000D03*
X116807000Y-54737000D03*
X116807000Y-56007000D03*
X122207000Y-56007000D03*
X122207000Y-54737000D03*
X122207000Y-53467000D03*
X122207000Y-52197000D03*
D17*
X116680000Y-40005000D03*
X116680000Y-41275000D03*
X116680000Y-42545000D03*
X116680000Y-43815000D03*
X116680000Y-45085000D03*
X116680000Y-46355000D03*
X116680000Y-47625000D03*
X116680000Y-48895000D03*
X122080000Y-48895000D03*
X122080000Y-47625000D03*
X122080000Y-46355000D03*
X122080000Y-45085000D03*
X122080000Y-43815000D03*
X122080000Y-42545000D03*
X122080000Y-41275000D03*
X122080000Y-40005000D03*
D18*
X120396000Y-45021500D03*
X118681500Y-50165000D03*
X127698500Y-43624500D03*
X124714000Y-43624500D03*
X116014500Y-57277000D03*
X115125500Y-47307500D03*
X115062000Y-49530000D03*
X123698000Y-49149000D03*
X123698000Y-52133500D03*
X127762000Y-63182500D03*
X125222000Y-50038000D03*
X130937000Y-61849000D03*
X124523500Y-57975500D03*
X116586000Y-50165000D03*
X132016500Y-61785500D03*
X124777500Y-52705000D03*
X124523500Y-50736500D03*
X131826000Y-59118500D03*
X132016500Y-56388000D03*
X127571500Y-52133500D03*
X118554500Y-42545000D03*
X131699000Y-53530500D03*
X127571500Y-49212500D03*
X118618000Y-41338500D03*
X131953000Y-50673000D03*
X127762000Y-46291500D03*
X118681500Y-40005000D03*
X131699000Y-47752000D03*
X131953000Y-44704000D03*
X114046000Y-56388000D03*
X123888500Y-56007000D03*
X123888500Y-54737000D03*
X123888500Y-53467000D03*
X122618500Y-59118500D03*
X120459500Y-46355000D03*
X120396000Y-42545000D03*
X115379500Y-53848000D03*
D19*
X122080000Y-45085000D02*
X120459500Y-45085000D01*
X120459500Y-45085000D02*
X120396000Y-45021500D01*
D20*
X118681500Y-50165000D02*
X117411500Y-48895000D01*
X117411500Y-48895000D02*
X116680000Y-48895000D01*
X124714000Y-43624500D02*
X127698500Y-43624500D01*
X124523500Y-43815000D02*
X122080000Y-43815000D01*
X124714000Y-43624500D02*
X124523500Y-43815000D01*
X116807000Y-56007000D02*
X116807000Y-56484500D01*
X116807000Y-56484500D02*
X116014500Y-57277000D01*
X122080000Y-40005000D02*
X121094500Y-40005000D01*
X120332500Y-47625000D02*
X122080000Y-47625000D01*
X119443500Y-46736000D02*
X120332500Y-47625000D01*
X119443500Y-41656000D02*
X119443500Y-46736000D01*
X121094500Y-40005000D02*
X119443500Y-41656000D01*
X115125500Y-49466500D02*
X115125500Y-47307500D01*
X115062000Y-49530000D02*
X115125500Y-49466500D01*
X122080000Y-47625000D02*
X123380500Y-47625000D01*
X123761500Y-48006000D02*
X123380500Y-47625000D01*
X123761500Y-49085500D02*
X123761500Y-48006000D01*
X123761500Y-49085500D02*
X123698000Y-49149000D01*
X123634500Y-52197000D02*
X122207000Y-52197000D01*
X123698000Y-52133500D02*
X123634500Y-52197000D01*
D19*
X116680000Y-47625000D02*
X118872000Y-47625000D01*
X127762000Y-63182500D02*
X129646500Y-63182500D01*
X119443500Y-50038000D02*
X125222000Y-50038000D01*
X119126000Y-49720500D02*
X119443500Y-50038000D01*
X119126000Y-47879000D02*
X119126000Y-49720500D01*
X118872000Y-47625000D02*
X119126000Y-47879000D01*
D21*
X131846500Y-63182500D02*
X131846500Y-62758500D01*
X131846500Y-62758500D02*
X130937000Y-61849000D01*
D19*
X116680000Y-46355000D02*
X114617500Y-46355000D01*
X126936500Y-60388500D02*
X129646500Y-60388500D01*
X124523500Y-57975500D02*
X126936500Y-60388500D01*
X114871500Y-50165000D02*
X116586000Y-50165000D01*
X113855500Y-49149000D02*
X114871500Y-50165000D01*
X113855500Y-47117000D02*
X113855500Y-49149000D01*
X114617500Y-46355000D02*
X113855500Y-47117000D01*
D21*
X131846500Y-61615500D02*
X131846500Y-60388500D01*
X132016500Y-61785500D02*
X131846500Y-61615500D01*
D19*
X116680000Y-45085000D02*
X114236500Y-45085000D01*
X128206500Y-57848500D02*
X129646500Y-57848500D01*
X127698500Y-57340500D02*
X128206500Y-57848500D01*
X127698500Y-55626000D02*
X127698500Y-57340500D01*
X124777500Y-52705000D02*
X127698500Y-55626000D01*
X124460000Y-50800000D02*
X124523500Y-50736500D01*
X114808000Y-50800000D02*
X124460000Y-50800000D01*
X113398302Y-49390302D02*
X114808000Y-50800000D01*
X113398302Y-45923198D02*
X113398302Y-49390302D01*
X114236500Y-45085000D02*
X113398302Y-45923198D01*
D21*
X131846500Y-57848500D02*
X131846500Y-59098000D01*
X131846500Y-59098000D02*
X131826000Y-59118500D01*
D19*
X116680000Y-43815000D02*
X114109500Y-43815000D01*
X128206500Y-55054500D02*
X129646500Y-55054500D01*
X127698500Y-54546500D02*
X128206500Y-55054500D01*
X127698500Y-53213000D02*
X127698500Y-54546500D01*
X125857000Y-51371500D02*
X127698500Y-53213000D01*
X114871500Y-51371500D02*
X125857000Y-51371500D01*
X113093500Y-49593500D02*
X114871500Y-51371500D01*
X113093500Y-44831000D02*
X113093500Y-49593500D01*
X114109500Y-43815000D02*
X113093500Y-44831000D01*
D21*
X131846500Y-56218000D02*
X131846500Y-55054500D01*
X132016500Y-56388000D02*
X131846500Y-56218000D01*
D19*
X116680000Y-42545000D02*
X118554500Y-42545000D01*
X127571500Y-52133500D02*
X129519500Y-52133500D01*
D21*
X131719500Y-52133500D02*
X131719500Y-53510000D01*
X131719500Y-53510000D02*
X131699000Y-53530500D01*
D19*
X116680000Y-41275000D02*
X118554500Y-41275000D01*
X127571500Y-49212500D02*
X129519500Y-49212500D01*
X118554500Y-41275000D02*
X118618000Y-41338500D01*
X116680000Y-41275000D02*
X117221000Y-41275000D01*
D21*
X131719500Y-50439500D02*
X131719500Y-49212500D01*
X131953000Y-50673000D02*
X131719500Y-50439500D01*
D19*
X116680000Y-40005000D02*
X118681500Y-40005000D01*
X127762000Y-46291500D02*
X129519500Y-46291500D01*
X116680000Y-40005000D02*
X117094000Y-40005000D01*
D21*
X131719500Y-46291500D02*
X131719500Y-47731500D01*
X131719500Y-47731500D02*
X131699000Y-47752000D01*
D19*
X122080000Y-41275000D02*
X127487500Y-41275000D01*
X127487500Y-41275000D02*
X129456000Y-43243500D01*
D21*
X131656000Y-44407000D02*
X131656000Y-43243500D01*
X131953000Y-44704000D02*
X131656000Y-44407000D01*
D19*
X111696500Y-42989500D02*
X111696500Y-43624500D01*
X111696500Y-43624500D02*
X110998000Y-44323000D01*
X110998000Y-44323000D02*
X108267500Y-44323000D01*
X108267500Y-44323000D02*
X107505500Y-45085000D01*
X107505500Y-45085000D02*
X107505500Y-56261000D01*
X107505500Y-56261000D02*
X108331000Y-57086500D01*
X108331000Y-57086500D02*
X113347500Y-57086500D01*
X113347500Y-57086500D02*
X114046000Y-56388000D01*
X114427000Y-54737000D02*
X116807000Y-54737000D01*
X114046000Y-55118000D02*
X114427000Y-54737000D01*
X114046000Y-56388000D02*
X114046000Y-55118000D01*
D21*
X122207000Y-56007000D02*
X123888500Y-56007000D01*
X122207000Y-54737000D02*
X123888500Y-54737000D01*
X122207000Y-53467000D02*
X123888500Y-53467000D01*
D20*
X113220500Y-40449500D02*
X114808000Y-38862000D01*
X114808000Y-38862000D02*
X131826000Y-38862000D01*
X131826000Y-38862000D02*
X133667500Y-40703500D01*
X133667500Y-40703500D02*
X133667500Y-64325500D01*
X133667500Y-64325500D02*
X132969000Y-65024000D01*
X132969000Y-65024000D02*
X128460500Y-65024000D01*
X128460500Y-65024000D02*
X122618500Y-59182000D01*
X113220500Y-40449500D02*
X109156500Y-40449500D01*
X122618500Y-59118500D02*
X122618500Y-59182000D01*
D19*
X109156500Y-58229500D02*
X109537500Y-58229500D01*
X109537500Y-58229500D02*
X110744000Y-59436000D01*
X110744000Y-59436000D02*
X115316000Y-59436000D01*
X115316000Y-59436000D02*
X117094000Y-61214000D01*
X111696500Y-58229500D02*
X119109500Y-58229500D01*
X119109500Y-58229500D02*
X122094000Y-61214000D01*
X122080000Y-46355000D02*
X120459500Y-46355000D01*
X122080000Y-42545000D02*
X120396000Y-42545000D01*
X115760500Y-53467000D02*
X116807000Y-53467000D01*
X115379500Y-53848000D02*
X115760500Y-53467000D01*
X111696500Y-55689500D02*
X111696500Y-55054500D01*
X111696500Y-55054500D02*
X113157000Y-53594000D01*
X114744500Y-53594000D02*
X116141500Y-52197000D01*
X113157000Y-53594000D02*
X114744500Y-53594000D01*
X116141500Y-52197000D02*
X116807000Y-52197000D01*
X111696500Y-55689500D02*
X111823500Y-55689500D01*
M02*
