G04 #@! TF.FileFunction,Legend,Bot*
%FSLAX46Y46*%
G04 Gerber Fmt 4.6, Leading zero omitted, Abs format (unit mm)*
G04 Created by KiCad (PCBNEW 4.0.6-e0-6349~53~ubuntu14.04.1) date Sun Jul 30 17:28:50 2017*
%MOMM*%
%LPD*%
G01*
G04 APERTURE LIST*
%ADD10C,0.100000*%
%ADD11C,0.120000*%
%ADD12C,0.150000*%
%ADD13R,1.900000X1.650000*%
%ADD14R,1.700000X1.900000*%
%ADD15R,1.900000X1.700000*%
%ADD16R,2.000000X2.000000*%
%ADD17C,2.000000*%
%ADD18R,2.100000X2.100000*%
%ADD19O,2.100000X2.100000*%
G04 APERTURE END LIST*
D10*
D11*
X123944000Y-45998500D02*
X122944000Y-45998500D01*
X122944000Y-44298500D02*
X123944000Y-44298500D01*
X119499000Y-49491000D02*
X118499000Y-49491000D01*
X118499000Y-47791000D02*
X119499000Y-47791000D01*
X122944000Y-46838500D02*
X123944000Y-46838500D01*
X123944000Y-48538500D02*
X122944000Y-48538500D01*
X114926000Y-54130500D02*
X114926000Y-52930500D01*
X113166000Y-52930500D02*
X113166000Y-54130500D01*
X118208500Y-57649000D02*
X119408500Y-57649000D01*
X119408500Y-55889000D02*
X118208500Y-55889000D01*
X118208500Y-55680500D02*
X119408500Y-55680500D01*
X119408500Y-53920500D02*
X118208500Y-53920500D01*
X118208500Y-53712000D02*
X119408500Y-53712000D01*
X119408500Y-51952000D02*
X118208500Y-51952000D01*
X130019500Y-64062500D02*
X131219500Y-64062500D01*
X131219500Y-62302500D02*
X130019500Y-62302500D01*
X130083000Y-61268500D02*
X131283000Y-61268500D01*
X131283000Y-59508500D02*
X130083000Y-59508500D01*
X130083000Y-58792000D02*
X131283000Y-58792000D01*
X131283000Y-57032000D02*
X130083000Y-57032000D01*
X130083000Y-55871000D02*
X131283000Y-55871000D01*
X131283000Y-54111000D02*
X130083000Y-54111000D01*
X130019500Y-53013500D02*
X131219500Y-53013500D01*
X131219500Y-51253500D02*
X130019500Y-51253500D01*
X119034000Y-59998500D02*
X120234000Y-59998500D01*
X120234000Y-58238500D02*
X119034000Y-58238500D01*
X119034000Y-64189500D02*
X120234000Y-64189500D01*
X120234000Y-62429500D02*
X119034000Y-62429500D01*
X130019500Y-50156000D02*
X131219500Y-50156000D01*
X131219500Y-48396000D02*
X130019500Y-48396000D01*
X130019500Y-47171500D02*
X131219500Y-47171500D01*
X131219500Y-45411500D02*
X130019500Y-45411500D01*
X130019500Y-44123500D02*
X131219500Y-44123500D01*
X131219500Y-42363500D02*
X130019500Y-42363500D01*
D12*
X126785666Y-45505643D02*
X126833285Y-45553262D01*
X126976142Y-45600881D01*
X127071380Y-45600881D01*
X127214238Y-45553262D01*
X127309476Y-45458024D01*
X127357095Y-45362786D01*
X127404714Y-45172310D01*
X127404714Y-45029452D01*
X127357095Y-44838976D01*
X127309476Y-44743738D01*
X127214238Y-44648500D01*
X127071380Y-44600881D01*
X126976142Y-44600881D01*
X126833285Y-44648500D01*
X126785666Y-44696119D01*
X125833285Y-45600881D02*
X126404714Y-45600881D01*
X126119000Y-45600881D02*
X126119000Y-44600881D01*
X126214238Y-44743738D01*
X126309476Y-44838976D01*
X126404714Y-44886595D01*
X115800166Y-48998143D02*
X115847785Y-49045762D01*
X115990642Y-49093381D01*
X116085880Y-49093381D01*
X116228738Y-49045762D01*
X116323976Y-48950524D01*
X116371595Y-48855286D01*
X116419214Y-48664810D01*
X116419214Y-48521952D01*
X116371595Y-48331476D01*
X116323976Y-48236238D01*
X116228738Y-48141000D01*
X116085880Y-48093381D01*
X115990642Y-48093381D01*
X115847785Y-48141000D01*
X115800166Y-48188619D01*
X115419214Y-48188619D02*
X115371595Y-48141000D01*
X115276357Y-48093381D01*
X115038261Y-48093381D01*
X114943023Y-48141000D01*
X114895404Y-48188619D01*
X114847785Y-48283857D01*
X114847785Y-48379095D01*
X114895404Y-48521952D01*
X115466833Y-49093381D01*
X114847785Y-49093381D01*
X126976166Y-48045643D02*
X127023785Y-48093262D01*
X127166642Y-48140881D01*
X127261880Y-48140881D01*
X127404738Y-48093262D01*
X127499976Y-47998024D01*
X127547595Y-47902786D01*
X127595214Y-47712310D01*
X127595214Y-47569452D01*
X127547595Y-47378976D01*
X127499976Y-47283738D01*
X127404738Y-47188500D01*
X127261880Y-47140881D01*
X127166642Y-47140881D01*
X127023785Y-47188500D01*
X126976166Y-47236119D01*
X126642833Y-47140881D02*
X126023785Y-47140881D01*
X126357119Y-47521833D01*
X126214261Y-47521833D01*
X126119023Y-47569452D01*
X126071404Y-47617071D01*
X126023785Y-47712310D01*
X126023785Y-47950405D01*
X126071404Y-48045643D01*
X126119023Y-48093262D01*
X126214261Y-48140881D01*
X126499976Y-48140881D01*
X126595214Y-48093262D01*
X126642833Y-48045643D01*
X114498381Y-50061834D02*
X114022190Y-49728500D01*
X114498381Y-49490405D02*
X113498381Y-49490405D01*
X113498381Y-49871358D01*
X113546000Y-49966596D01*
X113593619Y-50014215D01*
X113688857Y-50061834D01*
X113831714Y-50061834D01*
X113926952Y-50014215D01*
X113974571Y-49966596D01*
X114022190Y-49871358D01*
X114022190Y-49490405D01*
X114498381Y-51014215D02*
X114498381Y-50442786D01*
X114498381Y-50728500D02*
X113498381Y-50728500D01*
X113641238Y-50633262D01*
X113736476Y-50538024D01*
X113784095Y-50442786D01*
X122467666Y-57221381D02*
X122801000Y-56745190D01*
X123039095Y-57221381D02*
X123039095Y-56221381D01*
X122658142Y-56221381D01*
X122562904Y-56269000D01*
X122515285Y-56316619D01*
X122467666Y-56411857D01*
X122467666Y-56554714D01*
X122515285Y-56649952D01*
X122562904Y-56697571D01*
X122658142Y-56745190D01*
X123039095Y-56745190D01*
X122086714Y-56316619D02*
X122039095Y-56269000D01*
X121943857Y-56221381D01*
X121705761Y-56221381D01*
X121610523Y-56269000D01*
X121562904Y-56316619D01*
X121515285Y-56411857D01*
X121515285Y-56507095D01*
X121562904Y-56649952D01*
X122134333Y-57221381D01*
X121515285Y-57221381D01*
X122467666Y-55316381D02*
X122801000Y-54840190D01*
X123039095Y-55316381D02*
X123039095Y-54316381D01*
X122658142Y-54316381D01*
X122562904Y-54364000D01*
X122515285Y-54411619D01*
X122467666Y-54506857D01*
X122467666Y-54649714D01*
X122515285Y-54744952D01*
X122562904Y-54792571D01*
X122658142Y-54840190D01*
X123039095Y-54840190D01*
X122134333Y-54316381D02*
X121515285Y-54316381D01*
X121848619Y-54697333D01*
X121705761Y-54697333D01*
X121610523Y-54744952D01*
X121562904Y-54792571D01*
X121515285Y-54887810D01*
X121515285Y-55125905D01*
X121562904Y-55221143D01*
X121610523Y-55268762D01*
X121705761Y-55316381D01*
X121991476Y-55316381D01*
X122086714Y-55268762D01*
X122134333Y-55221143D01*
X122404166Y-53284381D02*
X122737500Y-52808190D01*
X122975595Y-53284381D02*
X122975595Y-52284381D01*
X122594642Y-52284381D01*
X122499404Y-52332000D01*
X122451785Y-52379619D01*
X122404166Y-52474857D01*
X122404166Y-52617714D01*
X122451785Y-52712952D01*
X122499404Y-52760571D01*
X122594642Y-52808190D01*
X122975595Y-52808190D01*
X121547023Y-52617714D02*
X121547023Y-53284381D01*
X121785119Y-52236762D02*
X122023214Y-52951048D01*
X121404166Y-52951048D01*
X127420666Y-63571381D02*
X127754000Y-63095190D01*
X127992095Y-63571381D02*
X127992095Y-62571381D01*
X127611142Y-62571381D01*
X127515904Y-62619000D01*
X127468285Y-62666619D01*
X127420666Y-62761857D01*
X127420666Y-62904714D01*
X127468285Y-62999952D01*
X127515904Y-63047571D01*
X127611142Y-63095190D01*
X127992095Y-63095190D01*
X126515904Y-62571381D02*
X126992095Y-62571381D01*
X127039714Y-63047571D01*
X126992095Y-62999952D01*
X126896857Y-62952333D01*
X126658761Y-62952333D01*
X126563523Y-62999952D01*
X126515904Y-63047571D01*
X126468285Y-63142810D01*
X126468285Y-63380905D01*
X126515904Y-63476143D01*
X126563523Y-63523762D01*
X126658761Y-63571381D01*
X126896857Y-63571381D01*
X126992095Y-63523762D01*
X127039714Y-63476143D01*
X127547666Y-60840881D02*
X127881000Y-60364690D01*
X128119095Y-60840881D02*
X128119095Y-59840881D01*
X127738142Y-59840881D01*
X127642904Y-59888500D01*
X127595285Y-59936119D01*
X127547666Y-60031357D01*
X127547666Y-60174214D01*
X127595285Y-60269452D01*
X127642904Y-60317071D01*
X127738142Y-60364690D01*
X128119095Y-60364690D01*
X126690523Y-59840881D02*
X126881000Y-59840881D01*
X126976238Y-59888500D01*
X127023857Y-59936119D01*
X127119095Y-60078976D01*
X127166714Y-60269452D01*
X127166714Y-60650405D01*
X127119095Y-60745643D01*
X127071476Y-60793262D01*
X126976238Y-60840881D01*
X126785761Y-60840881D01*
X126690523Y-60793262D01*
X126642904Y-60745643D01*
X126595285Y-60650405D01*
X126595285Y-60412310D01*
X126642904Y-60317071D01*
X126690523Y-60269452D01*
X126785761Y-60221833D01*
X126976238Y-60221833D01*
X127071476Y-60269452D01*
X127119095Y-60317071D01*
X127166714Y-60412310D01*
X127547666Y-58300881D02*
X127881000Y-57824690D01*
X128119095Y-58300881D02*
X128119095Y-57300881D01*
X127738142Y-57300881D01*
X127642904Y-57348500D01*
X127595285Y-57396119D01*
X127547666Y-57491357D01*
X127547666Y-57634214D01*
X127595285Y-57729452D01*
X127642904Y-57777071D01*
X127738142Y-57824690D01*
X128119095Y-57824690D01*
X127214333Y-57300881D02*
X126547666Y-57300881D01*
X126976238Y-58300881D01*
X127484166Y-55379881D02*
X127817500Y-54903690D01*
X128055595Y-55379881D02*
X128055595Y-54379881D01*
X127674642Y-54379881D01*
X127579404Y-54427500D01*
X127531785Y-54475119D01*
X127484166Y-54570357D01*
X127484166Y-54713214D01*
X127531785Y-54808452D01*
X127579404Y-54856071D01*
X127674642Y-54903690D01*
X128055595Y-54903690D01*
X126912738Y-54808452D02*
X127007976Y-54760833D01*
X127055595Y-54713214D01*
X127103214Y-54617976D01*
X127103214Y-54570357D01*
X127055595Y-54475119D01*
X127007976Y-54427500D01*
X126912738Y-54379881D01*
X126722261Y-54379881D01*
X126627023Y-54427500D01*
X126579404Y-54475119D01*
X126531785Y-54570357D01*
X126531785Y-54617976D01*
X126579404Y-54713214D01*
X126627023Y-54760833D01*
X126722261Y-54808452D01*
X126912738Y-54808452D01*
X127007976Y-54856071D01*
X127055595Y-54903690D01*
X127103214Y-54998929D01*
X127103214Y-55189405D01*
X127055595Y-55284643D01*
X127007976Y-55332262D01*
X126912738Y-55379881D01*
X126722261Y-55379881D01*
X126627023Y-55332262D01*
X126579404Y-55284643D01*
X126531785Y-55189405D01*
X126531785Y-54998929D01*
X126579404Y-54903690D01*
X126627023Y-54856071D01*
X126722261Y-54808452D01*
X127420666Y-52585881D02*
X127754000Y-52109690D01*
X127992095Y-52585881D02*
X127992095Y-51585881D01*
X127611142Y-51585881D01*
X127515904Y-51633500D01*
X127468285Y-51681119D01*
X127420666Y-51776357D01*
X127420666Y-51919214D01*
X127468285Y-52014452D01*
X127515904Y-52062071D01*
X127611142Y-52109690D01*
X127992095Y-52109690D01*
X126944476Y-52585881D02*
X126754000Y-52585881D01*
X126658761Y-52538262D01*
X126611142Y-52490643D01*
X126515904Y-52347786D01*
X126468285Y-52157310D01*
X126468285Y-51776357D01*
X126515904Y-51681119D01*
X126563523Y-51633500D01*
X126658761Y-51585881D01*
X126849238Y-51585881D01*
X126944476Y-51633500D01*
X126992095Y-51681119D01*
X127039714Y-51776357D01*
X127039714Y-52014452D01*
X126992095Y-52109690D01*
X126944476Y-52157310D01*
X126849238Y-52204929D01*
X126658761Y-52204929D01*
X126563523Y-52157310D01*
X126515904Y-52109690D01*
X126468285Y-52014452D01*
X124150357Y-59507381D02*
X124483691Y-59031190D01*
X124721786Y-59507381D02*
X124721786Y-58507381D01*
X124340833Y-58507381D01*
X124245595Y-58555000D01*
X124197976Y-58602619D01*
X124150357Y-58697857D01*
X124150357Y-58840714D01*
X124197976Y-58935952D01*
X124245595Y-58983571D01*
X124340833Y-59031190D01*
X124721786Y-59031190D01*
X123197976Y-59507381D02*
X123769405Y-59507381D01*
X123483691Y-59507381D02*
X123483691Y-58507381D01*
X123578929Y-58650238D01*
X123674167Y-58745476D01*
X123769405Y-58793095D01*
X122578929Y-58507381D02*
X122483690Y-58507381D01*
X122388452Y-58555000D01*
X122340833Y-58602619D01*
X122293214Y-58697857D01*
X122245595Y-58888333D01*
X122245595Y-59126429D01*
X122293214Y-59316905D01*
X122340833Y-59412143D01*
X122388452Y-59459762D01*
X122483690Y-59507381D01*
X122578929Y-59507381D01*
X122674167Y-59459762D01*
X122721786Y-59412143D01*
X122769405Y-59316905D01*
X122817024Y-59126429D01*
X122817024Y-58888333D01*
X122769405Y-58697857D01*
X122721786Y-58602619D01*
X122674167Y-58555000D01*
X122578929Y-58507381D01*
X124213857Y-63761881D02*
X124547191Y-63285690D01*
X124785286Y-63761881D02*
X124785286Y-62761881D01*
X124404333Y-62761881D01*
X124309095Y-62809500D01*
X124261476Y-62857119D01*
X124213857Y-62952357D01*
X124213857Y-63095214D01*
X124261476Y-63190452D01*
X124309095Y-63238071D01*
X124404333Y-63285690D01*
X124785286Y-63285690D01*
X123261476Y-63761881D02*
X123832905Y-63761881D01*
X123547191Y-63761881D02*
X123547191Y-62761881D01*
X123642429Y-62904738D01*
X123737667Y-62999976D01*
X123832905Y-63047595D01*
X122880524Y-62857119D02*
X122832905Y-62809500D01*
X122737667Y-62761881D01*
X122499571Y-62761881D01*
X122404333Y-62809500D01*
X122356714Y-62857119D01*
X122309095Y-62952357D01*
X122309095Y-63047595D01*
X122356714Y-63190452D01*
X122928143Y-63761881D01*
X122309095Y-63761881D01*
X127452357Y-49664881D02*
X127785691Y-49188690D01*
X128023786Y-49664881D02*
X128023786Y-48664881D01*
X127642833Y-48664881D01*
X127547595Y-48712500D01*
X127499976Y-48760119D01*
X127452357Y-48855357D01*
X127452357Y-48998214D01*
X127499976Y-49093452D01*
X127547595Y-49141071D01*
X127642833Y-49188690D01*
X128023786Y-49188690D01*
X126499976Y-49664881D02*
X127071405Y-49664881D01*
X126785691Y-49664881D02*
X126785691Y-48664881D01*
X126880929Y-48807738D01*
X126976167Y-48902976D01*
X127071405Y-48950595D01*
X126166643Y-48664881D02*
X125547595Y-48664881D01*
X125880929Y-49045833D01*
X125738071Y-49045833D01*
X125642833Y-49093452D01*
X125595214Y-49141071D01*
X125547595Y-49236310D01*
X125547595Y-49474405D01*
X125595214Y-49569643D01*
X125642833Y-49617262D01*
X125738071Y-49664881D01*
X126023786Y-49664881D01*
X126119024Y-49617262D01*
X126166643Y-49569643D01*
X127452357Y-46807381D02*
X127785691Y-46331190D01*
X128023786Y-46807381D02*
X128023786Y-45807381D01*
X127642833Y-45807381D01*
X127547595Y-45855000D01*
X127499976Y-45902619D01*
X127452357Y-45997857D01*
X127452357Y-46140714D01*
X127499976Y-46235952D01*
X127547595Y-46283571D01*
X127642833Y-46331190D01*
X128023786Y-46331190D01*
X126499976Y-46807381D02*
X127071405Y-46807381D01*
X126785691Y-46807381D02*
X126785691Y-45807381D01*
X126880929Y-45950238D01*
X126976167Y-46045476D01*
X127071405Y-46093095D01*
X125642833Y-46140714D02*
X125642833Y-46807381D01*
X125880929Y-45759762D02*
X126119024Y-46474048D01*
X125499976Y-46474048D01*
X127452357Y-43759381D02*
X127785691Y-43283190D01*
X128023786Y-43759381D02*
X128023786Y-42759381D01*
X127642833Y-42759381D01*
X127547595Y-42807000D01*
X127499976Y-42854619D01*
X127452357Y-42949857D01*
X127452357Y-43092714D01*
X127499976Y-43187952D01*
X127547595Y-43235571D01*
X127642833Y-43283190D01*
X128023786Y-43283190D01*
X126499976Y-43759381D02*
X127071405Y-43759381D01*
X126785691Y-43759381D02*
X126785691Y-42759381D01*
X126880929Y-42902238D01*
X126976167Y-42997476D01*
X127071405Y-43045095D01*
X125595214Y-42759381D02*
X126071405Y-42759381D01*
X126119024Y-43235571D01*
X126071405Y-43187952D01*
X125976167Y-43140333D01*
X125738071Y-43140333D01*
X125642833Y-43187952D01*
X125595214Y-43235571D01*
X125547595Y-43330810D01*
X125547595Y-43568905D01*
X125595214Y-43664143D01*
X125642833Y-43711762D01*
X125738071Y-43759381D01*
X125976167Y-43759381D01*
X126071405Y-43711762D01*
X126119024Y-43664143D01*
%LPC*%
D13*
X122194000Y-45148500D03*
X124694000Y-45148500D03*
X117749000Y-48641000D03*
X120249000Y-48641000D03*
X124694000Y-47688500D03*
X122194000Y-47688500D03*
D14*
X114046000Y-52180500D03*
X114046000Y-54880500D03*
D15*
X120158500Y-56769000D03*
X117458500Y-56769000D03*
X120158500Y-54800500D03*
X117458500Y-54800500D03*
X120158500Y-52832000D03*
X117458500Y-52832000D03*
X131969500Y-63182500D03*
X129269500Y-63182500D03*
X132033000Y-60388500D03*
X129333000Y-60388500D03*
X132033000Y-57912000D03*
X129333000Y-57912000D03*
X132033000Y-54991000D03*
X129333000Y-54991000D03*
X131969500Y-52133500D03*
X129269500Y-52133500D03*
X120984000Y-59118500D03*
X118284000Y-59118500D03*
D16*
X117094000Y-61214000D03*
D17*
X122094000Y-61214000D03*
D15*
X120984000Y-63309500D03*
X118284000Y-63309500D03*
X131969500Y-49276000D03*
X129269500Y-49276000D03*
X131969500Y-46291500D03*
X129269500Y-46291500D03*
X131969500Y-43243500D03*
X129269500Y-43243500D03*
D18*
X109156500Y-40449500D03*
D19*
X109156500Y-42989500D03*
X111696500Y-42989500D03*
X109156500Y-45529500D03*
X111696500Y-45529500D03*
X109156500Y-48069500D03*
X111696500Y-48069500D03*
X111696500Y-50609500D03*
X111696500Y-53149500D03*
X109156500Y-55689500D03*
X111696500Y-55689500D03*
X109156500Y-58229500D03*
X111696500Y-58229500D03*
X109156500Y-60769500D03*
X111696500Y-60769500D03*
X109156500Y-63309500D03*
M02*
