G04 #@! TF.FileFunction,Legend,Top*
%FSLAX46Y46*%
G04 Gerber Fmt 4.6, Leading zero omitted, Abs format (unit mm)*
G04 Created by KiCad (PCBNEW 4.0.6-e0-6349~53~ubuntu14.04.1) date Sun Jul 30 17:28:50 2017*
%MOMM*%
%LPD*%
G01*
G04 APERTURE LIST*
%ADD10C,0.100000*%
%ADD11C,0.120000*%
%ADD12C,0.150000*%
%ADD13R,1.600000X1.600000*%
%ADD14R,2.000000X2.000000*%
%ADD15C,2.000000*%
%ADD16R,2.100000X2.100000*%
%ADD17O,2.100000X2.100000*%
%ADD18R,1.950000X1.000000*%
%ADD19R,1.900000X1.000000*%
G04 APERTURE END LIST*
D10*
D11*
X132546500Y-63882500D02*
X132546500Y-62482500D01*
X132546500Y-62482500D02*
X129746500Y-62482500D01*
X132546500Y-63882500D02*
X129746500Y-63882500D01*
X132546500Y-61088500D02*
X132546500Y-59688500D01*
X132546500Y-59688500D02*
X129746500Y-59688500D01*
X132546500Y-61088500D02*
X129746500Y-61088500D01*
X132546500Y-58548500D02*
X132546500Y-57148500D01*
X132546500Y-57148500D02*
X129746500Y-57148500D01*
X132546500Y-58548500D02*
X129746500Y-58548500D01*
X132546500Y-55754500D02*
X132546500Y-54354500D01*
X132546500Y-54354500D02*
X129746500Y-54354500D01*
X132546500Y-55754500D02*
X129746500Y-55754500D01*
X132419500Y-52833500D02*
X132419500Y-51433500D01*
X132419500Y-51433500D02*
X129619500Y-51433500D01*
X132419500Y-52833500D02*
X129619500Y-52833500D01*
X132419500Y-49912500D02*
X132419500Y-48512500D01*
X132419500Y-48512500D02*
X129619500Y-48512500D01*
X132419500Y-49912500D02*
X129619500Y-49912500D01*
X132419500Y-46991500D02*
X132419500Y-45591500D01*
X132419500Y-45591500D02*
X129619500Y-45591500D01*
X132419500Y-46991500D02*
X129619500Y-46991500D01*
X132356000Y-43943500D02*
X132356000Y-42543500D01*
X132356000Y-42543500D02*
X129556000Y-42543500D01*
X132356000Y-43943500D02*
X129556000Y-43943500D01*
X114894000Y-61214000D02*
X116094000Y-61214000D01*
X115494000Y-60564000D02*
X115494000Y-61864000D01*
X122259082Y-60232706D02*
G75*
G03X116928442Y-60234000I-2665082J-981294D01*
G01*
X122259082Y-62195294D02*
G75*
G02X116928442Y-62194000I-2665082J981294D01*
G01*
X107826500Y-41719500D02*
X107826500Y-64639500D01*
X107826500Y-64639500D02*
X113026500Y-64639500D01*
X113026500Y-64639500D02*
X113026500Y-39119500D01*
X113026500Y-39119500D02*
X110426500Y-39119500D01*
X110426500Y-39119500D02*
X110426500Y-41719500D01*
X110426500Y-41719500D02*
X107826500Y-41719500D01*
X107826500Y-40449500D02*
X107826500Y-39119500D01*
X107826500Y-39119500D02*
X109156500Y-39119500D01*
D12*
X117432000Y-51527000D02*
X117432000Y-51577000D01*
X121582000Y-51527000D02*
X121582000Y-51672000D01*
X121582000Y-56677000D02*
X121582000Y-56532000D01*
X117432000Y-56677000D02*
X117432000Y-56532000D01*
X117432000Y-51527000D02*
X121582000Y-51527000D01*
X117432000Y-56677000D02*
X121582000Y-56677000D01*
X117432000Y-51577000D02*
X116032000Y-51577000D01*
X117305000Y-39375000D02*
X117305000Y-39400000D01*
X121455000Y-39375000D02*
X121455000Y-39480000D01*
X121455000Y-49525000D02*
X121455000Y-49420000D01*
X117305000Y-49525000D02*
X117305000Y-49420000D01*
X117305000Y-39375000D02*
X121455000Y-39375000D01*
X117305000Y-49525000D02*
X121455000Y-49525000D01*
X117305000Y-39400000D02*
X115930000Y-39400000D01*
X126960405Y-63634881D02*
X126960405Y-62634881D01*
X127198500Y-62634881D01*
X127341358Y-62682500D01*
X127436596Y-62777738D01*
X127484215Y-62872976D01*
X127531834Y-63063452D01*
X127531834Y-63206310D01*
X127484215Y-63396786D01*
X127436596Y-63492024D01*
X127341358Y-63587262D01*
X127198500Y-63634881D01*
X126960405Y-63634881D01*
X128484215Y-63634881D02*
X127912786Y-63634881D01*
X128198500Y-63634881D02*
X128198500Y-62634881D01*
X128103262Y-62777738D01*
X128008024Y-62872976D01*
X127912786Y-62920595D01*
X126960405Y-60840881D02*
X126960405Y-59840881D01*
X127198500Y-59840881D01*
X127341358Y-59888500D01*
X127436596Y-59983738D01*
X127484215Y-60078976D01*
X127531834Y-60269452D01*
X127531834Y-60412310D01*
X127484215Y-60602786D01*
X127436596Y-60698024D01*
X127341358Y-60793262D01*
X127198500Y-60840881D01*
X126960405Y-60840881D01*
X127912786Y-59936119D02*
X127960405Y-59888500D01*
X128055643Y-59840881D01*
X128293739Y-59840881D01*
X128388977Y-59888500D01*
X128436596Y-59936119D01*
X128484215Y-60031357D01*
X128484215Y-60126595D01*
X128436596Y-60269452D01*
X127865167Y-60840881D01*
X128484215Y-60840881D01*
X126960405Y-58300881D02*
X126960405Y-57300881D01*
X127198500Y-57300881D01*
X127341358Y-57348500D01*
X127436596Y-57443738D01*
X127484215Y-57538976D01*
X127531834Y-57729452D01*
X127531834Y-57872310D01*
X127484215Y-58062786D01*
X127436596Y-58158024D01*
X127341358Y-58253262D01*
X127198500Y-58300881D01*
X126960405Y-58300881D01*
X127865167Y-57300881D02*
X128484215Y-57300881D01*
X128150881Y-57681833D01*
X128293739Y-57681833D01*
X128388977Y-57729452D01*
X128436596Y-57777071D01*
X128484215Y-57872310D01*
X128484215Y-58110405D01*
X128436596Y-58205643D01*
X128388977Y-58253262D01*
X128293739Y-58300881D01*
X128008024Y-58300881D01*
X127912786Y-58253262D01*
X127865167Y-58205643D01*
X126960405Y-55506881D02*
X126960405Y-54506881D01*
X127198500Y-54506881D01*
X127341358Y-54554500D01*
X127436596Y-54649738D01*
X127484215Y-54744976D01*
X127531834Y-54935452D01*
X127531834Y-55078310D01*
X127484215Y-55268786D01*
X127436596Y-55364024D01*
X127341358Y-55459262D01*
X127198500Y-55506881D01*
X126960405Y-55506881D01*
X128388977Y-54840214D02*
X128388977Y-55506881D01*
X128150881Y-54459262D02*
X127912786Y-55173548D01*
X128531834Y-55173548D01*
X126833405Y-52585881D02*
X126833405Y-51585881D01*
X127071500Y-51585881D01*
X127214358Y-51633500D01*
X127309596Y-51728738D01*
X127357215Y-51823976D01*
X127404834Y-52014452D01*
X127404834Y-52157310D01*
X127357215Y-52347786D01*
X127309596Y-52443024D01*
X127214358Y-52538262D01*
X127071500Y-52585881D01*
X126833405Y-52585881D01*
X128309596Y-51585881D02*
X127833405Y-51585881D01*
X127785786Y-52062071D01*
X127833405Y-52014452D01*
X127928643Y-51966833D01*
X128166739Y-51966833D01*
X128261977Y-52014452D01*
X128309596Y-52062071D01*
X128357215Y-52157310D01*
X128357215Y-52395405D01*
X128309596Y-52490643D01*
X128261977Y-52538262D01*
X128166739Y-52585881D01*
X127928643Y-52585881D01*
X127833405Y-52538262D01*
X127785786Y-52490643D01*
X126833405Y-49664881D02*
X126833405Y-48664881D01*
X127071500Y-48664881D01*
X127214358Y-48712500D01*
X127309596Y-48807738D01*
X127357215Y-48902976D01*
X127404834Y-49093452D01*
X127404834Y-49236310D01*
X127357215Y-49426786D01*
X127309596Y-49522024D01*
X127214358Y-49617262D01*
X127071500Y-49664881D01*
X126833405Y-49664881D01*
X128261977Y-48664881D02*
X128071500Y-48664881D01*
X127976262Y-48712500D01*
X127928643Y-48760119D01*
X127833405Y-48902976D01*
X127785786Y-49093452D01*
X127785786Y-49474405D01*
X127833405Y-49569643D01*
X127881024Y-49617262D01*
X127976262Y-49664881D01*
X128166739Y-49664881D01*
X128261977Y-49617262D01*
X128309596Y-49569643D01*
X128357215Y-49474405D01*
X128357215Y-49236310D01*
X128309596Y-49141071D01*
X128261977Y-49093452D01*
X128166739Y-49045833D01*
X127976262Y-49045833D01*
X127881024Y-49093452D01*
X127833405Y-49141071D01*
X127785786Y-49236310D01*
X126833405Y-46743881D02*
X126833405Y-45743881D01*
X127071500Y-45743881D01*
X127214358Y-45791500D01*
X127309596Y-45886738D01*
X127357215Y-45981976D01*
X127404834Y-46172452D01*
X127404834Y-46315310D01*
X127357215Y-46505786D01*
X127309596Y-46601024D01*
X127214358Y-46696262D01*
X127071500Y-46743881D01*
X126833405Y-46743881D01*
X127738167Y-45743881D02*
X128404834Y-45743881D01*
X127976262Y-46743881D01*
X126515905Y-43759381D02*
X126515905Y-42759381D01*
X126754000Y-42759381D01*
X126896858Y-42807000D01*
X126992096Y-42902238D01*
X127039715Y-42997476D01*
X127087334Y-43187952D01*
X127087334Y-43330810D01*
X127039715Y-43521286D01*
X126992096Y-43616524D01*
X126896858Y-43711762D01*
X126754000Y-43759381D01*
X126515905Y-43759381D01*
X127658762Y-43187952D02*
X127563524Y-43140333D01*
X127515905Y-43092714D01*
X127468286Y-42997476D01*
X127468286Y-42949857D01*
X127515905Y-42854619D01*
X127563524Y-42807000D01*
X127658762Y-42759381D01*
X127849239Y-42759381D01*
X127944477Y-42807000D01*
X127992096Y-42854619D01*
X128039715Y-42949857D01*
X128039715Y-42997476D01*
X127992096Y-43092714D01*
X127944477Y-43140333D01*
X127849239Y-43187952D01*
X127658762Y-43187952D01*
X127563524Y-43235571D01*
X127515905Y-43283190D01*
X127468286Y-43378429D01*
X127468286Y-43568905D01*
X127515905Y-43664143D01*
X127563524Y-43711762D01*
X127658762Y-43759381D01*
X127849239Y-43759381D01*
X127944477Y-43711762D01*
X127992096Y-43664143D01*
X128039715Y-43568905D01*
X128039715Y-43378429D01*
X127992096Y-43283190D01*
X127944477Y-43235571D01*
X127849239Y-43187952D01*
%LPC*%
D13*
X129646500Y-63182500D03*
X131846500Y-63182500D03*
X129646500Y-60388500D03*
X131846500Y-60388500D03*
X129646500Y-57848500D03*
X131846500Y-57848500D03*
X129646500Y-55054500D03*
X131846500Y-55054500D03*
X129519500Y-52133500D03*
X131719500Y-52133500D03*
X129519500Y-49212500D03*
X131719500Y-49212500D03*
X129519500Y-46291500D03*
X131719500Y-46291500D03*
X129456000Y-43243500D03*
X131656000Y-43243500D03*
D14*
X117094000Y-61214000D03*
D15*
X122094000Y-61214000D03*
D16*
X109156500Y-40449500D03*
D17*
X109156500Y-42989500D03*
X111696500Y-42989500D03*
X109156500Y-45529500D03*
X111696500Y-45529500D03*
X109156500Y-48069500D03*
X111696500Y-48069500D03*
X111696500Y-50609500D03*
X111696500Y-53149500D03*
X109156500Y-55689500D03*
X111696500Y-55689500D03*
X109156500Y-58229500D03*
X111696500Y-58229500D03*
X109156500Y-60769500D03*
X111696500Y-60769500D03*
X109156500Y-63309500D03*
D18*
X116807000Y-52197000D03*
X116807000Y-53467000D03*
X116807000Y-54737000D03*
X116807000Y-56007000D03*
X122207000Y-56007000D03*
X122207000Y-54737000D03*
X122207000Y-53467000D03*
X122207000Y-52197000D03*
D19*
X116680000Y-40005000D03*
X116680000Y-41275000D03*
X116680000Y-42545000D03*
X116680000Y-43815000D03*
X116680000Y-45085000D03*
X116680000Y-46355000D03*
X116680000Y-47625000D03*
X116680000Y-48895000D03*
X122080000Y-48895000D03*
X122080000Y-47625000D03*
X122080000Y-46355000D03*
X122080000Y-45085000D03*
X122080000Y-43815000D03*
X122080000Y-42545000D03*
X122080000Y-41275000D03*
X122080000Y-40005000D03*
M02*
