G04 #@! TF.FileFunction,Legend,Top*
%FSLAX46Y46*%
G04 Gerber Fmt 4.6, Leading zero omitted, Abs format (unit mm)*
G04 Created by KiCad (PCBNEW 4.0.6-e0-6349~53~ubuntu14.04.1) date Sun Jun  4 18:24:11 2017*
%MOMM*%
%LPD*%
G01*
G04 APERTURE LIST*
%ADD10C,0.100000*%
%ADD11C,0.190500*%
%ADD12C,0.120000*%
%ADD13C,0.150000*%
%ADD14C,3.600000*%
%ADD15R,2.100000X2.100000*%
%ADD16O,2.100000X2.100000*%
%ADD17R,1.700000X1.900000*%
%ADD18C,2.101800*%
G04 APERTURE END LIST*
D10*
D11*
X145451286Y-85761285D02*
X146213286Y-85761285D01*
X145669000Y-86015285D01*
X146213286Y-86269285D01*
X145451286Y-86269285D01*
X145451286Y-86632142D02*
X145959286Y-86632142D01*
X146213286Y-86632142D02*
X146177000Y-86595856D01*
X146140714Y-86632142D01*
X146177000Y-86668427D01*
X146213286Y-86632142D01*
X146140714Y-86632142D01*
X145487571Y-87321570D02*
X145451286Y-87248999D01*
X145451286Y-87103856D01*
X145487571Y-87031284D01*
X145523857Y-86994999D01*
X145596429Y-86958713D01*
X145814143Y-86958713D01*
X145886714Y-86994999D01*
X145923000Y-87031284D01*
X145959286Y-87103856D01*
X145959286Y-87248999D01*
X145923000Y-87321570D01*
X145451286Y-87648142D02*
X145959286Y-87648142D01*
X145814143Y-87648142D02*
X145886714Y-87684427D01*
X145923000Y-87720713D01*
X145959286Y-87793284D01*
X145959286Y-87865856D01*
X145451286Y-88228713D02*
X145487571Y-88156141D01*
X145523857Y-88119856D01*
X145596429Y-88083570D01*
X145814143Y-88083570D01*
X145886714Y-88119856D01*
X145923000Y-88156141D01*
X145959286Y-88228713D01*
X145959286Y-88337570D01*
X145923000Y-88410141D01*
X145886714Y-88446427D01*
X145814143Y-88482713D01*
X145596429Y-88482713D01*
X145523857Y-88446427D01*
X145487571Y-88410141D01*
X145451286Y-88337570D01*
X145451286Y-88228713D01*
X145523857Y-89244713D02*
X145487571Y-89208427D01*
X145451286Y-89099570D01*
X145451286Y-89026999D01*
X145487571Y-88918142D01*
X145560143Y-88845570D01*
X145632714Y-88809285D01*
X145777857Y-88772999D01*
X145886714Y-88772999D01*
X146031857Y-88809285D01*
X146104429Y-88845570D01*
X146177000Y-88918142D01*
X146213286Y-89026999D01*
X146213286Y-89099570D01*
X146177000Y-89208427D01*
X146140714Y-89244713D01*
X145451286Y-89680142D02*
X145487571Y-89607570D01*
X145523857Y-89571285D01*
X145596429Y-89534999D01*
X145814143Y-89534999D01*
X145886714Y-89571285D01*
X145923000Y-89607570D01*
X145959286Y-89680142D01*
X145959286Y-89788999D01*
X145923000Y-89861570D01*
X145886714Y-89897856D01*
X145814143Y-89934142D01*
X145596429Y-89934142D01*
X145523857Y-89897856D01*
X145487571Y-89861570D01*
X145451286Y-89788999D01*
X145451286Y-89680142D01*
X145959286Y-90260714D02*
X145451286Y-90260714D01*
X145886714Y-90260714D02*
X145923000Y-90296999D01*
X145959286Y-90369571D01*
X145959286Y-90478428D01*
X145923000Y-90550999D01*
X145850429Y-90587285D01*
X145451286Y-90587285D01*
X145959286Y-90841285D02*
X145959286Y-91131571D01*
X146213286Y-90950143D02*
X145560143Y-90950143D01*
X145487571Y-90986428D01*
X145451286Y-91059000D01*
X145451286Y-91131571D01*
X145451286Y-91385572D02*
X145959286Y-91385572D01*
X145814143Y-91385572D02*
X145886714Y-91421857D01*
X145923000Y-91458143D01*
X145959286Y-91530714D01*
X145959286Y-91603286D01*
X145451286Y-91966143D02*
X145487571Y-91893571D01*
X145523857Y-91857286D01*
X145596429Y-91821000D01*
X145814143Y-91821000D01*
X145886714Y-91857286D01*
X145923000Y-91893571D01*
X145959286Y-91966143D01*
X145959286Y-92075000D01*
X145923000Y-92147571D01*
X145886714Y-92183857D01*
X145814143Y-92220143D01*
X145596429Y-92220143D01*
X145523857Y-92183857D01*
X145487571Y-92147571D01*
X145451286Y-92075000D01*
X145451286Y-91966143D01*
X145451286Y-92655572D02*
X145487571Y-92583000D01*
X145560143Y-92546715D01*
X146213286Y-92546715D01*
X145451286Y-93054715D02*
X145487571Y-92982143D01*
X145560143Y-92945858D01*
X146213286Y-92945858D01*
X145487571Y-93635286D02*
X145451286Y-93562715D01*
X145451286Y-93417572D01*
X145487571Y-93345001D01*
X145560143Y-93308715D01*
X145850429Y-93308715D01*
X145923000Y-93345001D01*
X145959286Y-93417572D01*
X145959286Y-93562715D01*
X145923000Y-93635286D01*
X145850429Y-93671572D01*
X145777857Y-93671572D01*
X145705286Y-93308715D01*
X145451286Y-93998144D02*
X145959286Y-93998144D01*
X145814143Y-93998144D02*
X145886714Y-94034429D01*
X145923000Y-94070715D01*
X145959286Y-94143286D01*
X145959286Y-94215858D01*
X145451286Y-95050429D02*
X146213286Y-95050429D01*
X145850429Y-95050429D02*
X145850429Y-95485857D01*
X145451286Y-95485857D02*
X146213286Y-95485857D01*
X145487571Y-96139000D02*
X145451286Y-96066429D01*
X145451286Y-95921286D01*
X145487571Y-95848715D01*
X145560143Y-95812429D01*
X145850429Y-95812429D01*
X145923000Y-95848715D01*
X145959286Y-95921286D01*
X145959286Y-96066429D01*
X145923000Y-96139000D01*
X145850429Y-96175286D01*
X145777857Y-96175286D01*
X145705286Y-95812429D01*
X145451286Y-96828429D02*
X145850429Y-96828429D01*
X145923000Y-96792143D01*
X145959286Y-96719572D01*
X145959286Y-96574429D01*
X145923000Y-96501858D01*
X145487571Y-96828429D02*
X145451286Y-96755858D01*
X145451286Y-96574429D01*
X145487571Y-96501858D01*
X145560143Y-96465572D01*
X145632714Y-96465572D01*
X145705286Y-96501858D01*
X145741571Y-96574429D01*
X145741571Y-96755858D01*
X145777857Y-96828429D01*
X145451286Y-97517858D02*
X146213286Y-97517858D01*
X145487571Y-97517858D02*
X145451286Y-97445287D01*
X145451286Y-97300144D01*
X145487571Y-97227572D01*
X145523857Y-97191287D01*
X145596429Y-97155001D01*
X145814143Y-97155001D01*
X145886714Y-97191287D01*
X145923000Y-97227572D01*
X145959286Y-97300144D01*
X145959286Y-97445287D01*
X145923000Y-97517858D01*
X145487571Y-98171001D02*
X145451286Y-98098430D01*
X145451286Y-97953287D01*
X145487571Y-97880716D01*
X145560143Y-97844430D01*
X145850429Y-97844430D01*
X145923000Y-97880716D01*
X145959286Y-97953287D01*
X145959286Y-98098430D01*
X145923000Y-98171001D01*
X145850429Y-98207287D01*
X145777857Y-98207287D01*
X145705286Y-97844430D01*
X145451286Y-98533859D02*
X145959286Y-98533859D01*
X145814143Y-98533859D02*
X145886714Y-98570144D01*
X145923000Y-98606430D01*
X145959286Y-98679001D01*
X145959286Y-98751573D01*
X140099143Y-68670714D02*
X140570857Y-68670714D01*
X140316857Y-68961000D01*
X140425715Y-68961000D01*
X140498286Y-68997286D01*
X140534572Y-69033571D01*
X140570857Y-69106143D01*
X140570857Y-69287571D01*
X140534572Y-69360143D01*
X140498286Y-69396429D01*
X140425715Y-69432714D01*
X140208000Y-69432714D01*
X140135429Y-69396429D01*
X140099143Y-69360143D01*
X140897429Y-69360143D02*
X140933714Y-69396429D01*
X140897429Y-69432714D01*
X140861143Y-69396429D01*
X140897429Y-69360143D01*
X140897429Y-69432714D01*
X141187714Y-68670714D02*
X141659428Y-68670714D01*
X141405428Y-68961000D01*
X141514286Y-68961000D01*
X141586857Y-68997286D01*
X141623143Y-69033571D01*
X141659428Y-69106143D01*
X141659428Y-69287571D01*
X141623143Y-69360143D01*
X141586857Y-69396429D01*
X141514286Y-69432714D01*
X141296571Y-69432714D01*
X141224000Y-69396429D01*
X141187714Y-69360143D01*
X141877142Y-68670714D02*
X142131142Y-69432714D01*
X142385142Y-68670714D01*
X146158858Y-68670714D02*
X145796001Y-68670714D01*
X145759715Y-69033571D01*
X145796001Y-68997286D01*
X145868572Y-68961000D01*
X146050001Y-68961000D01*
X146122572Y-68997286D01*
X146158858Y-69033571D01*
X146195143Y-69106143D01*
X146195143Y-69287571D01*
X146158858Y-69360143D01*
X146122572Y-69396429D01*
X146050001Y-69432714D01*
X145868572Y-69432714D01*
X145796001Y-69396429D01*
X145759715Y-69360143D01*
X146412857Y-68670714D02*
X146666857Y-69432714D01*
X146920857Y-68670714D01*
D12*
X142494000Y-72450000D02*
X147634000Y-72450000D01*
X147634000Y-72450000D02*
X147634000Y-69790000D01*
X147634000Y-69790000D02*
X142494000Y-69790000D01*
X142494000Y-69790000D02*
X142494000Y-72450000D01*
X141224000Y-72450000D02*
X139894000Y-72450000D01*
X139894000Y-72450000D02*
X139894000Y-71120000D01*
X150232000Y-75600000D02*
X150232000Y-76800000D01*
X148472000Y-76800000D02*
X148472000Y-75600000D01*
X145678000Y-76800000D02*
X145678000Y-75600000D01*
X147438000Y-75600000D02*
X147438000Y-76800000D01*
X139386000Y-77724000D02*
X139386000Y-100644000D01*
X139386000Y-100644000D02*
X144586000Y-100644000D01*
X144586000Y-100644000D02*
X144586000Y-75124000D01*
X144586000Y-75124000D02*
X141986000Y-75124000D01*
X141986000Y-75124000D02*
X141986000Y-77724000D01*
X141986000Y-77724000D02*
X139386000Y-77724000D01*
X139386000Y-76454000D02*
X139386000Y-75124000D01*
X139386000Y-75124000D02*
X140716000Y-75124000D01*
D13*
X138346381Y-72405714D02*
X139060667Y-72405714D01*
X139203524Y-72453334D01*
X139298762Y-72548572D01*
X139346381Y-72691429D01*
X139346381Y-72786667D01*
X139346381Y-71405714D02*
X139346381Y-71977143D01*
X139346381Y-71691429D02*
X138346381Y-71691429D01*
X138489238Y-71786667D01*
X138584476Y-71881905D01*
X138632095Y-71977143D01*
X138346381Y-70786667D02*
X138346381Y-70691428D01*
X138394000Y-70596190D01*
X138441619Y-70548571D01*
X138536857Y-70500952D01*
X138727333Y-70453333D01*
X138965429Y-70453333D01*
X139155905Y-70500952D01*
X139251143Y-70548571D01*
X139298762Y-70596190D01*
X139346381Y-70691428D01*
X139346381Y-70786667D01*
X139298762Y-70881905D01*
X139251143Y-70929524D01*
X139155905Y-70977143D01*
X138965429Y-71024762D01*
X138727333Y-71024762D01*
X138536857Y-70977143D01*
X138441619Y-70929524D01*
X138394000Y-70881905D01*
X138346381Y-70786667D01*
X139346381Y-69500952D02*
X139346381Y-70072381D01*
X139346381Y-69786667D02*
X138346381Y-69786667D01*
X138489238Y-69881905D01*
X138584476Y-69977143D01*
X138632095Y-70072381D01*
X149804381Y-73001047D02*
X149328190Y-73334381D01*
X149804381Y-73572476D02*
X148804381Y-73572476D01*
X148804381Y-73191523D01*
X148852000Y-73096285D01*
X148899619Y-73048666D01*
X148994857Y-73001047D01*
X149137714Y-73001047D01*
X149232952Y-73048666D01*
X149280571Y-73096285D01*
X149328190Y-73191523D01*
X149328190Y-73572476D01*
X149804381Y-72048666D02*
X149804381Y-72620095D01*
X149804381Y-72334381D02*
X148804381Y-72334381D01*
X148947238Y-72429619D01*
X149042476Y-72524857D01*
X149090095Y-72620095D01*
X148804381Y-71429619D02*
X148804381Y-71334380D01*
X148852000Y-71239142D01*
X148899619Y-71191523D01*
X148994857Y-71143904D01*
X149185333Y-71096285D01*
X149423429Y-71096285D01*
X149613905Y-71143904D01*
X149709143Y-71191523D01*
X149756762Y-71239142D01*
X149804381Y-71334380D01*
X149804381Y-71429619D01*
X149756762Y-71524857D01*
X149709143Y-71572476D01*
X149613905Y-71620095D01*
X149423429Y-71667714D01*
X149185333Y-71667714D01*
X148994857Y-71620095D01*
X148899619Y-71572476D01*
X148852000Y-71524857D01*
X148804381Y-71429619D01*
X149804381Y-70143904D02*
X149804381Y-70715333D01*
X149804381Y-70429619D02*
X148804381Y-70429619D01*
X148947238Y-70524857D01*
X149042476Y-70620095D01*
X149090095Y-70715333D01*
X145438953Y-79954381D02*
X145105619Y-79478190D01*
X144867524Y-79954381D02*
X144867524Y-78954381D01*
X145248477Y-78954381D01*
X145343715Y-79002000D01*
X145391334Y-79049619D01*
X145438953Y-79144857D01*
X145438953Y-79287714D01*
X145391334Y-79382952D01*
X145343715Y-79430571D01*
X145248477Y-79478190D01*
X144867524Y-79478190D01*
X146391334Y-79954381D02*
X145819905Y-79954381D01*
X146105619Y-79954381D02*
X146105619Y-78954381D01*
X146010381Y-79097238D01*
X145915143Y-79192476D01*
X145819905Y-79240095D01*
X147010381Y-78954381D02*
X147105620Y-78954381D01*
X147200858Y-79002000D01*
X147248477Y-79049619D01*
X147296096Y-79144857D01*
X147343715Y-79335333D01*
X147343715Y-79573429D01*
X147296096Y-79763905D01*
X147248477Y-79859143D01*
X147200858Y-79906762D01*
X147105620Y-79954381D01*
X147010381Y-79954381D01*
X146915143Y-79906762D01*
X146867524Y-79859143D01*
X146819905Y-79763905D01*
X146772286Y-79573429D01*
X146772286Y-79335333D01*
X146819905Y-79144857D01*
X146867524Y-79049619D01*
X146915143Y-79002000D01*
X147010381Y-78954381D01*
X147724667Y-79049619D02*
X147772286Y-79002000D01*
X147867524Y-78954381D01*
X148105620Y-78954381D01*
X148200858Y-79002000D01*
X148248477Y-79049619D01*
X148296096Y-79144857D01*
X148296096Y-79240095D01*
X148248477Y-79382952D01*
X147677048Y-79954381D01*
X148296096Y-79954381D01*
X140271714Y-73576381D02*
X140271714Y-74385905D01*
X140319333Y-74481143D01*
X140366952Y-74528762D01*
X140462190Y-74576381D01*
X140652667Y-74576381D01*
X140747905Y-74528762D01*
X140795524Y-74481143D01*
X140843143Y-74385905D01*
X140843143Y-73576381D01*
X141843143Y-74576381D02*
X141271714Y-74576381D01*
X141557428Y-74576381D02*
X141557428Y-73576381D01*
X141462190Y-73719238D01*
X141366952Y-73814476D01*
X141271714Y-73862095D01*
X142462190Y-73576381D02*
X142557429Y-73576381D01*
X142652667Y-73624000D01*
X142700286Y-73671619D01*
X142747905Y-73766857D01*
X142795524Y-73957333D01*
X142795524Y-74195429D01*
X142747905Y-74385905D01*
X142700286Y-74481143D01*
X142652667Y-74528762D01*
X142557429Y-74576381D01*
X142462190Y-74576381D01*
X142366952Y-74528762D01*
X142319333Y-74481143D01*
X142271714Y-74385905D01*
X142224095Y-74195429D01*
X142224095Y-73957333D01*
X142271714Y-73766857D01*
X142319333Y-73671619D01*
X142366952Y-73624000D01*
X142462190Y-73576381D01*
X143176476Y-73671619D02*
X143224095Y-73624000D01*
X143319333Y-73576381D01*
X143557429Y-73576381D01*
X143652667Y-73624000D01*
X143700286Y-73671619D01*
X143747905Y-73766857D01*
X143747905Y-73862095D01*
X143700286Y-74004952D01*
X143128857Y-74576381D01*
X143747905Y-74576381D01*
%LPC*%
D14*
X155702000Y-106680000D03*
X132588000Y-106680000D03*
X132588000Y-66040000D03*
D15*
X141224000Y-71120000D03*
D16*
X143764000Y-71120000D03*
X146304000Y-71120000D03*
D17*
X149352000Y-77550000D03*
X149352000Y-74850000D03*
X146558000Y-74850000D03*
X146558000Y-77550000D03*
D14*
X155702000Y-66040000D03*
D15*
X140716000Y-76454000D03*
D16*
X140716000Y-78994000D03*
X143256000Y-78994000D03*
X140716000Y-81534000D03*
X143256000Y-81534000D03*
X140716000Y-84074000D03*
X143256000Y-84074000D03*
X143256000Y-86614000D03*
X143256000Y-89154000D03*
X140716000Y-91694000D03*
X143256000Y-91694000D03*
X140716000Y-94234000D03*
X143256000Y-94234000D03*
X140716000Y-96774000D03*
X143256000Y-96774000D03*
X140716000Y-99314000D03*
D18*
X151638000Y-72390000D03*
X151638000Y-74930000D03*
X151638000Y-77470000D03*
X151638000Y-80010000D03*
X151638000Y-82550000D03*
X151638000Y-85090000D03*
X151638000Y-87630000D03*
X151638000Y-90170000D03*
X151638000Y-92710000D03*
X151638000Y-95250000D03*
X151638000Y-97790000D03*
X151638000Y-100330000D03*
X151638000Y-102870000D03*
X136398000Y-102870000D03*
X136398000Y-100330000D03*
X136398000Y-97790000D03*
X136398000Y-95250000D03*
X136398000Y-92710000D03*
X136398000Y-90170000D03*
X136398000Y-87630000D03*
X136398000Y-85090000D03*
X136398000Y-82550000D03*
X136398000Y-80010000D03*
X136398000Y-77470000D03*
X136398000Y-74930000D03*
X136398000Y-72390000D03*
X136398000Y-69850000D03*
X151638000Y-69850000D03*
X149098000Y-102870000D03*
X146558000Y-102870000D03*
X144018000Y-102870000D03*
X141478000Y-102870000D03*
X138938000Y-102870000D03*
M02*
