M48
;DRILL file {KiCad 4.0.6-e0-6349~53~ubuntu14.04.1} date Sun Jun  4 18:25:40 2017
;FORMAT={2:4/ absolute / inch / suppress leading zeros}
FMAT,2
INCH,TZ
T1C0.013
T2C0.039
T3C0.040
T4C0.126
%
G90
G05
M72
T1
X55900Y-32600
X57200Y-33100
X57400Y-31600
X57500Y-32800
X57900Y-32400
X58200Y-31900
X58200Y-33500
X59100Y-34000
T2
X55400Y-30100
X55400Y-31100
X55400Y-32100
X55400Y-33100
X55400Y-36100
X55400Y-37100
X55400Y-38100
X55400Y-39100
X55600Y-28000
X56400Y-31100
X56400Y-32100
X56400Y-33100
X56400Y-34100
X56400Y-35100
X56400Y-36100
X56400Y-37100
X56400Y-38100
X56600Y-28000
X57600Y-28000
T3
X53700Y-27500
X53700Y-28500
X53700Y-29500
X53700Y-30500
X53700Y-31500
X53700Y-32500
X53700Y-33500
X53700Y-34500
X53700Y-35500
X53700Y-36500
X53700Y-37500
X53700Y-38500
X53700Y-39500
X53700Y-40500
X54700Y-40500
X55700Y-40500
X56700Y-40500
X57700Y-40500
X58700Y-40500
X59700Y-27500
X59700Y-28500
X59700Y-29500
X59700Y-30500
X59700Y-31500
X59700Y-32500
X59700Y-33500
X59700Y-34500
X59700Y-35500
X59700Y-36500
X59700Y-37500
X59700Y-38500
X59700Y-39500
X59700Y-40500
T4
X52200Y-26000
X52200Y-42000
X61300Y-26000
X61300Y-42000
T0
M30
