G04 #@! TF.FileFunction,Copper,L2,Bot,Signal*
%FSLAX46Y46*%
G04 Gerber Fmt 4.6, Leading zero omitted, Abs format (unit mm)*
G04 Created by KiCad (PCBNEW 4.0.6-e0-6349~53~ubuntu14.04.1) date Sun Jun  4 18:24:11 2017*
%MOMM*%
%LPD*%
G01*
G04 APERTURE LIST*
%ADD10C,0.100000*%
%ADD11R,1.700000X1.700000*%
%ADD12O,1.700000X1.700000*%
%ADD13C,1.701800*%
%ADD14C,0.685800*%
%ADD15C,0.254000*%
G04 APERTURE END LIST*
D10*
D11*
X141224000Y-71120000D03*
D12*
X143764000Y-71120000D03*
X146304000Y-71120000D03*
D11*
X140716000Y-76454000D03*
D12*
X140716000Y-78994000D03*
X143256000Y-78994000D03*
X140716000Y-81534000D03*
X143256000Y-81534000D03*
X140716000Y-84074000D03*
X143256000Y-84074000D03*
X143256000Y-86614000D03*
X143256000Y-89154000D03*
X140716000Y-91694000D03*
X143256000Y-91694000D03*
X140716000Y-94234000D03*
X143256000Y-94234000D03*
X140716000Y-96774000D03*
X143256000Y-96774000D03*
X140716000Y-99314000D03*
D13*
X151638000Y-72390000D03*
X151638000Y-74930000D03*
X151638000Y-77470000D03*
X151638000Y-80010000D03*
X151638000Y-82550000D03*
X151638000Y-85090000D03*
X151638000Y-87630000D03*
X151638000Y-90170000D03*
X151638000Y-92710000D03*
X151638000Y-95250000D03*
X151638000Y-97790000D03*
X151638000Y-100330000D03*
X151638000Y-102870000D03*
X136398000Y-102870000D03*
X136398000Y-100330000D03*
X136398000Y-97790000D03*
X136398000Y-95250000D03*
X136398000Y-92710000D03*
X136398000Y-90170000D03*
X136398000Y-87630000D03*
X136398000Y-85090000D03*
X136398000Y-82550000D03*
X136398000Y-80010000D03*
X136398000Y-77470000D03*
X136398000Y-74930000D03*
X136398000Y-72390000D03*
X136398000Y-69850000D03*
X151638000Y-69850000D03*
X149098000Y-102870000D03*
X146558000Y-102870000D03*
X144018000Y-102870000D03*
X141478000Y-102870000D03*
X138938000Y-102870000D03*
D14*
X146050000Y-83312000D03*
X147828000Y-85090000D03*
X150114000Y-86360000D03*
X147828000Y-81026000D03*
X145796000Y-80264000D03*
X147066000Y-82296000D03*
X145288000Y-84074000D03*
X141986000Y-82804000D03*
D15*
X144272000Y-81534000D02*
X143256000Y-81534000D01*
X146050000Y-83312000D02*
X144272000Y-81534000D01*
X148844000Y-85090000D02*
X147828000Y-85090000D01*
X150114000Y-86360000D02*
X148844000Y-85090000D01*
X147828000Y-81026000D02*
X147066000Y-80264000D01*
X147066000Y-80264000D02*
X145796000Y-80264000D01*
X147066000Y-82296000D02*
X145796000Y-81026000D01*
X145796000Y-81026000D02*
X145288000Y-81026000D01*
X145288000Y-81026000D02*
X143256000Y-78994000D01*
X145288000Y-84074000D02*
X144018000Y-82804000D01*
X144018000Y-82804000D02*
X141986000Y-82804000D01*
X136398000Y-100330000D02*
X134874000Y-98806000D01*
X135890000Y-93980000D02*
X140462000Y-93980000D01*
X134874000Y-94996000D02*
X135890000Y-93980000D01*
X134874000Y-98806000D02*
X134874000Y-94996000D01*
X140462000Y-93980000D02*
X140716000Y-94234000D01*
X136398000Y-97790000D02*
X136906000Y-97790000D01*
X136906000Y-97790000D02*
X139192000Y-95504000D01*
X139192000Y-95504000D02*
X141986000Y-95504000D01*
X141986000Y-95504000D02*
X143256000Y-94234000D01*
G36*
X158802000Y-109780000D02*
X129488000Y-109780000D01*
X129488000Y-107072316D01*
X130606657Y-107072316D01*
X130907611Y-107800680D01*
X131464389Y-108358431D01*
X132192226Y-108660655D01*
X132980316Y-108661343D01*
X133708680Y-108360389D01*
X134266431Y-107803611D01*
X134568655Y-107075774D01*
X134568658Y-107072316D01*
X153720657Y-107072316D01*
X154021611Y-107800680D01*
X154578389Y-108358431D01*
X155306226Y-108660655D01*
X156094316Y-108661343D01*
X156822680Y-108360389D01*
X157380431Y-107803611D01*
X157682655Y-107075774D01*
X157683343Y-106287684D01*
X157382389Y-105559320D01*
X156825611Y-105001569D01*
X156097774Y-104699345D01*
X155309684Y-104698657D01*
X154581320Y-104999611D01*
X154023569Y-105556389D01*
X153721345Y-106284226D01*
X153720657Y-107072316D01*
X134568658Y-107072316D01*
X134569343Y-106287684D01*
X134268389Y-105559320D01*
X133711611Y-105001569D01*
X132983774Y-104699345D01*
X132195684Y-104698657D01*
X131467320Y-104999611D01*
X130909569Y-105556389D01*
X130607345Y-106284226D01*
X130606657Y-107072316D01*
X129488000Y-107072316D01*
X129488000Y-103113965D01*
X135165887Y-103113965D01*
X135353037Y-103566903D01*
X135699274Y-103913745D01*
X136151885Y-104101685D01*
X136641965Y-104102113D01*
X137094903Y-103914963D01*
X137441745Y-103568726D01*
X137629685Y-103116115D01*
X137629686Y-103113965D01*
X137705887Y-103113965D01*
X137893037Y-103566903D01*
X138239274Y-103913745D01*
X138691885Y-104101685D01*
X139181965Y-104102113D01*
X139634903Y-103914963D01*
X139981745Y-103568726D01*
X140169685Y-103116115D01*
X140169686Y-103113965D01*
X140245887Y-103113965D01*
X140433037Y-103566903D01*
X140779274Y-103913745D01*
X141231885Y-104101685D01*
X141721965Y-104102113D01*
X142174903Y-103914963D01*
X142314435Y-103775674D01*
X143291931Y-103775674D01*
X143386250Y-103955593D01*
X143849778Y-104114717D01*
X144338915Y-104084345D01*
X144649750Y-103955593D01*
X144744069Y-103775674D01*
X144018000Y-103049605D01*
X143291931Y-103775674D01*
X142314435Y-103775674D01*
X142521745Y-103568726D01*
X142709685Y-103116115D01*
X142710046Y-102701778D01*
X142773283Y-102701778D01*
X142803655Y-103190915D01*
X142932407Y-103501750D01*
X143112326Y-103596069D01*
X143838395Y-102870000D01*
X144197605Y-102870000D01*
X144923674Y-103596069D01*
X145103593Y-103501750D01*
X145236715Y-103113965D01*
X145325887Y-103113965D01*
X145513037Y-103566903D01*
X145859274Y-103913745D01*
X146311885Y-104101685D01*
X146801965Y-104102113D01*
X147254903Y-103914963D01*
X147601745Y-103568726D01*
X147789685Y-103116115D01*
X147789686Y-103113965D01*
X147865887Y-103113965D01*
X148053037Y-103566903D01*
X148399274Y-103913745D01*
X148851885Y-104101685D01*
X149341965Y-104102113D01*
X149794903Y-103914963D01*
X150141745Y-103568726D01*
X150329685Y-103116115D01*
X150329686Y-103113965D01*
X150405887Y-103113965D01*
X150593037Y-103566903D01*
X150939274Y-103913745D01*
X151391885Y-104101685D01*
X151881965Y-104102113D01*
X152334903Y-103914963D01*
X152681745Y-103568726D01*
X152869685Y-103116115D01*
X152870113Y-102626035D01*
X152682963Y-102173097D01*
X152336726Y-101826255D01*
X151884115Y-101638315D01*
X151394035Y-101637887D01*
X150941097Y-101825037D01*
X150594255Y-102171274D01*
X150406315Y-102623885D01*
X150405887Y-103113965D01*
X150329686Y-103113965D01*
X150330113Y-102626035D01*
X150142963Y-102173097D01*
X149796726Y-101826255D01*
X149344115Y-101638315D01*
X148854035Y-101637887D01*
X148401097Y-101825037D01*
X148054255Y-102171274D01*
X147866315Y-102623885D01*
X147865887Y-103113965D01*
X147789686Y-103113965D01*
X147790113Y-102626035D01*
X147602963Y-102173097D01*
X147256726Y-101826255D01*
X146804115Y-101638315D01*
X146314035Y-101637887D01*
X145861097Y-101825037D01*
X145514255Y-102171274D01*
X145326315Y-102623885D01*
X145325887Y-103113965D01*
X145236715Y-103113965D01*
X145262717Y-103038222D01*
X145232345Y-102549085D01*
X145103593Y-102238250D01*
X144923674Y-102143931D01*
X144197605Y-102870000D01*
X143838395Y-102870000D01*
X143112326Y-102143931D01*
X142932407Y-102238250D01*
X142773283Y-102701778D01*
X142710046Y-102701778D01*
X142710113Y-102626035D01*
X142522963Y-102173097D01*
X142314557Y-101964326D01*
X143291931Y-101964326D01*
X144018000Y-102690395D01*
X144744069Y-101964326D01*
X144649750Y-101784407D01*
X144186222Y-101625283D01*
X143697085Y-101655655D01*
X143386250Y-101784407D01*
X143291931Y-101964326D01*
X142314557Y-101964326D01*
X142176726Y-101826255D01*
X141724115Y-101638315D01*
X141234035Y-101637887D01*
X140781097Y-101825037D01*
X140434255Y-102171274D01*
X140246315Y-102623885D01*
X140245887Y-103113965D01*
X140169686Y-103113965D01*
X140170113Y-102626035D01*
X139982963Y-102173097D01*
X139636726Y-101826255D01*
X139184115Y-101638315D01*
X138694035Y-101637887D01*
X138241097Y-101825037D01*
X137894255Y-102171274D01*
X137706315Y-102623885D01*
X137705887Y-103113965D01*
X137629686Y-103113965D01*
X137630113Y-102626035D01*
X137442963Y-102173097D01*
X137096726Y-101826255D01*
X136644115Y-101638315D01*
X136154035Y-101637887D01*
X135701097Y-101825037D01*
X135354255Y-102171274D01*
X135166315Y-102623885D01*
X135165887Y-103113965D01*
X129488000Y-103113965D01*
X129488000Y-94996000D01*
X134366000Y-94996000D01*
X134366000Y-98806000D01*
X134404669Y-99000403D01*
X134514790Y-99165210D01*
X135244698Y-99895118D01*
X135166315Y-100083885D01*
X135165887Y-100573965D01*
X135353037Y-101026903D01*
X135699274Y-101373745D01*
X136151885Y-101561685D01*
X136641965Y-101562113D01*
X137094903Y-101374963D01*
X137441745Y-101028726D01*
X137629685Y-100576115D01*
X137629686Y-100573965D01*
X150405887Y-100573965D01*
X150593037Y-101026903D01*
X150939274Y-101373745D01*
X151391885Y-101561685D01*
X151881965Y-101562113D01*
X152334903Y-101374963D01*
X152681745Y-101028726D01*
X152869685Y-100576115D01*
X152870113Y-100086035D01*
X152682963Y-99633097D01*
X152336726Y-99286255D01*
X151884115Y-99098315D01*
X151394035Y-99097887D01*
X150941097Y-99285037D01*
X150594255Y-99631274D01*
X150406315Y-100083885D01*
X150405887Y-100573965D01*
X137629686Y-100573965D01*
X137630113Y-100086035D01*
X137442963Y-99633097D01*
X137440850Y-99630980D01*
X139526511Y-99630980D01*
X139650755Y-99930964D01*
X139967944Y-100291652D01*
X140399018Y-100503501D01*
X140589000Y-100443193D01*
X140589000Y-99441000D01*
X140843000Y-99441000D01*
X140843000Y-100443193D01*
X141032982Y-100503501D01*
X141464056Y-100291652D01*
X141781245Y-99930964D01*
X141905489Y-99630980D01*
X141844627Y-99441000D01*
X140843000Y-99441000D01*
X140589000Y-99441000D01*
X139587373Y-99441000D01*
X139526511Y-99630980D01*
X137440850Y-99630980D01*
X137096726Y-99286255D01*
X136644115Y-99098315D01*
X136154035Y-99097887D01*
X135963171Y-99176750D01*
X135382000Y-98595580D01*
X135382000Y-98515917D01*
X135699274Y-98833745D01*
X136151885Y-99021685D01*
X136641965Y-99022113D01*
X136702694Y-98997020D01*
X139526511Y-98997020D01*
X139587373Y-99187000D01*
X140589000Y-99187000D01*
X140589000Y-98184807D01*
X140843000Y-98184807D01*
X140843000Y-99187000D01*
X141844627Y-99187000D01*
X141905489Y-98997020D01*
X141781245Y-98697036D01*
X141464056Y-98336348D01*
X141032982Y-98124499D01*
X140843000Y-98184807D01*
X140589000Y-98184807D01*
X140399018Y-98124499D01*
X139967944Y-98336348D01*
X139650755Y-98697036D01*
X139526511Y-98997020D01*
X136702694Y-98997020D01*
X137094903Y-98834963D01*
X137441745Y-98488726D01*
X137629685Y-98036115D01*
X137629686Y-98033965D01*
X150405887Y-98033965D01*
X150593037Y-98486903D01*
X150939274Y-98833745D01*
X151391885Y-99021685D01*
X151881965Y-99022113D01*
X152334903Y-98834963D01*
X152681745Y-98488726D01*
X152869685Y-98036115D01*
X152870113Y-97546035D01*
X152682963Y-97093097D01*
X152336726Y-96746255D01*
X151884115Y-96558315D01*
X151394035Y-96557887D01*
X150941097Y-96745037D01*
X150594255Y-97091274D01*
X150406315Y-97543885D01*
X150405887Y-98033965D01*
X137629686Y-98033965D01*
X137629905Y-97784515D01*
X139402420Y-96012000D01*
X139748972Y-96012000D01*
X139554587Y-96302917D01*
X139460883Y-96774000D01*
X139554587Y-97245083D01*
X139821435Y-97644448D01*
X140220800Y-97911296D01*
X140691883Y-98005000D01*
X140740117Y-98005000D01*
X141211200Y-97911296D01*
X141610565Y-97644448D01*
X141877413Y-97245083D01*
X141971117Y-96774000D01*
X142000883Y-96774000D01*
X142094587Y-97245083D01*
X142361435Y-97644448D01*
X142760800Y-97911296D01*
X143231883Y-98005000D01*
X143280117Y-98005000D01*
X143751200Y-97911296D01*
X144150565Y-97644448D01*
X144417413Y-97245083D01*
X144511117Y-96774000D01*
X144417413Y-96302917D01*
X144150565Y-95903552D01*
X143751200Y-95636704D01*
X143280117Y-95543000D01*
X143231883Y-95543000D01*
X142760800Y-95636704D01*
X142361435Y-95903552D01*
X142094587Y-96302917D01*
X142000883Y-96774000D01*
X141971117Y-96774000D01*
X141877413Y-96302917D01*
X141683028Y-96012000D01*
X141986000Y-96012000D01*
X142180403Y-95973331D01*
X142345210Y-95863210D01*
X142714455Y-95493965D01*
X150405887Y-95493965D01*
X150593037Y-95946903D01*
X150939274Y-96293745D01*
X151391885Y-96481685D01*
X151881965Y-96482113D01*
X152334903Y-96294963D01*
X152681745Y-95948726D01*
X152869685Y-95496115D01*
X152870113Y-95006035D01*
X152682963Y-94553097D01*
X152336726Y-94206255D01*
X151884115Y-94018315D01*
X151394035Y-94017887D01*
X150941097Y-94205037D01*
X150594255Y-94551274D01*
X150406315Y-95003885D01*
X150405887Y-95493965D01*
X142714455Y-95493965D01*
X142824461Y-95383959D01*
X143231883Y-95465000D01*
X143280117Y-95465000D01*
X143751200Y-95371296D01*
X144150565Y-95104448D01*
X144417413Y-94705083D01*
X144511117Y-94234000D01*
X144417413Y-93762917D01*
X144150565Y-93363552D01*
X143751200Y-93096704D01*
X143280117Y-93003000D01*
X143231883Y-93003000D01*
X142760800Y-93096704D01*
X142361435Y-93363552D01*
X142094587Y-93762917D01*
X142000883Y-94234000D01*
X142089927Y-94681653D01*
X141775580Y-94996000D01*
X141683028Y-94996000D01*
X141877413Y-94705083D01*
X141971117Y-94234000D01*
X141877413Y-93762917D01*
X141610565Y-93363552D01*
X141211200Y-93096704D01*
X140740117Y-93003000D01*
X140691883Y-93003000D01*
X140220800Y-93096704D01*
X139821435Y-93363552D01*
X139748972Y-93472000D01*
X137378360Y-93472000D01*
X137441745Y-93408726D01*
X137629685Y-92956115D01*
X137629686Y-92953965D01*
X150405887Y-92953965D01*
X150593037Y-93406903D01*
X150939274Y-93753745D01*
X151391885Y-93941685D01*
X151881965Y-93942113D01*
X152334903Y-93754963D01*
X152681745Y-93408726D01*
X152869685Y-92956115D01*
X152870113Y-92466035D01*
X152682963Y-92013097D01*
X152336726Y-91666255D01*
X151884115Y-91478315D01*
X151394035Y-91477887D01*
X150941097Y-91665037D01*
X150594255Y-92011274D01*
X150406315Y-92463885D01*
X150405887Y-92953965D01*
X137629686Y-92953965D01*
X137630113Y-92466035D01*
X137442963Y-92013097D01*
X137124423Y-91694000D01*
X139460883Y-91694000D01*
X139554587Y-92165083D01*
X139821435Y-92564448D01*
X140220800Y-92831296D01*
X140691883Y-92925000D01*
X140740117Y-92925000D01*
X141211200Y-92831296D01*
X141610565Y-92564448D01*
X141877413Y-92165083D01*
X141971117Y-91694000D01*
X142000883Y-91694000D01*
X142094587Y-92165083D01*
X142361435Y-92564448D01*
X142760800Y-92831296D01*
X143231883Y-92925000D01*
X143280117Y-92925000D01*
X143751200Y-92831296D01*
X144150565Y-92564448D01*
X144417413Y-92165083D01*
X144511117Y-91694000D01*
X144417413Y-91222917D01*
X144150565Y-90823552D01*
X143751200Y-90556704D01*
X143280117Y-90463000D01*
X143231883Y-90463000D01*
X142760800Y-90556704D01*
X142361435Y-90823552D01*
X142094587Y-91222917D01*
X142000883Y-91694000D01*
X141971117Y-91694000D01*
X141877413Y-91222917D01*
X141610565Y-90823552D01*
X141211200Y-90556704D01*
X140740117Y-90463000D01*
X140691883Y-90463000D01*
X140220800Y-90556704D01*
X139821435Y-90823552D01*
X139554587Y-91222917D01*
X139460883Y-91694000D01*
X137124423Y-91694000D01*
X137096726Y-91666255D01*
X136644115Y-91478315D01*
X136154035Y-91477887D01*
X135701097Y-91665037D01*
X135354255Y-92011274D01*
X135166315Y-92463885D01*
X135165887Y-92953965D01*
X135353037Y-93406903D01*
X135552242Y-93606456D01*
X135530790Y-93620790D01*
X134514790Y-94636790D01*
X134404669Y-94801597D01*
X134366000Y-94996000D01*
X129488000Y-94996000D01*
X129488000Y-90413965D01*
X135165887Y-90413965D01*
X135353037Y-90866903D01*
X135699274Y-91213745D01*
X136151885Y-91401685D01*
X136641965Y-91402113D01*
X137094903Y-91214963D01*
X137441745Y-90868726D01*
X137629685Y-90416115D01*
X137629686Y-90413965D01*
X150405887Y-90413965D01*
X150593037Y-90866903D01*
X150939274Y-91213745D01*
X151391885Y-91401685D01*
X151881965Y-91402113D01*
X152334903Y-91214963D01*
X152681745Y-90868726D01*
X152869685Y-90416115D01*
X152870113Y-89926035D01*
X152682963Y-89473097D01*
X152336726Y-89126255D01*
X151884115Y-88938315D01*
X151394035Y-88937887D01*
X150941097Y-89125037D01*
X150594255Y-89471274D01*
X150406315Y-89923885D01*
X150405887Y-90413965D01*
X137629686Y-90413965D01*
X137630113Y-89926035D01*
X137442963Y-89473097D01*
X137124423Y-89154000D01*
X142000883Y-89154000D01*
X142094587Y-89625083D01*
X142361435Y-90024448D01*
X142760800Y-90291296D01*
X143231883Y-90385000D01*
X143280117Y-90385000D01*
X143751200Y-90291296D01*
X144150565Y-90024448D01*
X144417413Y-89625083D01*
X144511117Y-89154000D01*
X144417413Y-88682917D01*
X144150565Y-88283552D01*
X143751200Y-88016704D01*
X143280117Y-87923000D01*
X143231883Y-87923000D01*
X142760800Y-88016704D01*
X142361435Y-88283552D01*
X142094587Y-88682917D01*
X142000883Y-89154000D01*
X137124423Y-89154000D01*
X137096726Y-89126255D01*
X136644115Y-88938315D01*
X136154035Y-88937887D01*
X135701097Y-89125037D01*
X135354255Y-89471274D01*
X135166315Y-89923885D01*
X135165887Y-90413965D01*
X129488000Y-90413965D01*
X129488000Y-87873965D01*
X135165887Y-87873965D01*
X135353037Y-88326903D01*
X135699274Y-88673745D01*
X136151885Y-88861685D01*
X136641965Y-88862113D01*
X137094903Y-88674963D01*
X137441745Y-88328726D01*
X137629685Y-87876115D01*
X137629686Y-87873965D01*
X150405887Y-87873965D01*
X150593037Y-88326903D01*
X150939274Y-88673745D01*
X151391885Y-88861685D01*
X151881965Y-88862113D01*
X152334903Y-88674963D01*
X152681745Y-88328726D01*
X152869685Y-87876115D01*
X152870113Y-87386035D01*
X152682963Y-86933097D01*
X152336726Y-86586255D01*
X151884115Y-86398315D01*
X151394035Y-86397887D01*
X150941097Y-86585037D01*
X150594255Y-86931274D01*
X150406315Y-87383885D01*
X150405887Y-87873965D01*
X137629686Y-87873965D01*
X137630113Y-87386035D01*
X137442963Y-86933097D01*
X137440850Y-86930980D01*
X142066511Y-86930980D01*
X142190755Y-87230964D01*
X142507944Y-87591652D01*
X142939018Y-87803501D01*
X143129000Y-87743193D01*
X143129000Y-86741000D01*
X143383000Y-86741000D01*
X143383000Y-87743193D01*
X143572982Y-87803501D01*
X144004056Y-87591652D01*
X144321245Y-87230964D01*
X144445489Y-86930980D01*
X144384627Y-86741000D01*
X143383000Y-86741000D01*
X143129000Y-86741000D01*
X142127373Y-86741000D01*
X142066511Y-86930980D01*
X137440850Y-86930980D01*
X137096726Y-86586255D01*
X136644115Y-86398315D01*
X136154035Y-86397887D01*
X135701097Y-86585037D01*
X135354255Y-86931274D01*
X135166315Y-87383885D01*
X135165887Y-87873965D01*
X129488000Y-87873965D01*
X129488000Y-85333965D01*
X135165887Y-85333965D01*
X135353037Y-85786903D01*
X135699274Y-86133745D01*
X136151885Y-86321685D01*
X136641965Y-86322113D01*
X136702694Y-86297020D01*
X142066511Y-86297020D01*
X142127373Y-86487000D01*
X143129000Y-86487000D01*
X143129000Y-85484807D01*
X143383000Y-85484807D01*
X143383000Y-86487000D01*
X144384627Y-86487000D01*
X144445489Y-86297020D01*
X144321245Y-85997036D01*
X144004056Y-85636348D01*
X143572982Y-85424499D01*
X143383000Y-85484807D01*
X143129000Y-85484807D01*
X142939018Y-85424499D01*
X142507944Y-85636348D01*
X142190755Y-85997036D01*
X142066511Y-86297020D01*
X136702694Y-86297020D01*
X137094903Y-86134963D01*
X137441745Y-85788726D01*
X137629685Y-85336115D01*
X137630113Y-84846035D01*
X137442963Y-84393097D01*
X137096726Y-84046255D01*
X136644115Y-83858315D01*
X136154035Y-83857887D01*
X135701097Y-84045037D01*
X135354255Y-84391274D01*
X135166315Y-84843885D01*
X135165887Y-85333965D01*
X129488000Y-85333965D01*
X129488000Y-82793965D01*
X135165887Y-82793965D01*
X135353037Y-83246903D01*
X135699274Y-83593745D01*
X136151885Y-83781685D01*
X136641965Y-83782113D01*
X137094903Y-83594963D01*
X137441745Y-83248726D01*
X137629685Y-82796115D01*
X137630113Y-82306035D01*
X137442963Y-81853097D01*
X137124423Y-81534000D01*
X139460883Y-81534000D01*
X139554587Y-82005083D01*
X139821435Y-82404448D01*
X140220800Y-82671296D01*
X140691883Y-82765000D01*
X140740117Y-82765000D01*
X141211200Y-82671296D01*
X141274969Y-82628687D01*
X141262226Y-82659376D01*
X141261975Y-82947361D01*
X141275257Y-82979506D01*
X141211200Y-82936704D01*
X140740117Y-82843000D01*
X140691883Y-82843000D01*
X140220800Y-82936704D01*
X139821435Y-83203552D01*
X139554587Y-83602917D01*
X139460883Y-84074000D01*
X139554587Y-84545083D01*
X139821435Y-84944448D01*
X140220800Y-85211296D01*
X140691883Y-85305000D01*
X140740117Y-85305000D01*
X141211200Y-85211296D01*
X141610565Y-84944448D01*
X141877413Y-84545083D01*
X141971117Y-84074000D01*
X141877413Y-83602917D01*
X141821762Y-83519630D01*
X141841376Y-83527774D01*
X142129361Y-83528025D01*
X142150451Y-83519311D01*
X142094587Y-83602917D01*
X142000883Y-84074000D01*
X142094587Y-84545083D01*
X142361435Y-84944448D01*
X142760800Y-85211296D01*
X143231883Y-85305000D01*
X143280117Y-85305000D01*
X143640271Y-85233361D01*
X147103975Y-85233361D01*
X147213950Y-85499521D01*
X147417408Y-85703335D01*
X147683376Y-85813774D01*
X147971361Y-85814025D01*
X148237521Y-85704050D01*
X148343757Y-85598000D01*
X148633580Y-85598000D01*
X149390105Y-86354525D01*
X149389975Y-86503361D01*
X149499950Y-86769521D01*
X149703408Y-86973335D01*
X149969376Y-87083774D01*
X150257361Y-87084025D01*
X150523521Y-86974050D01*
X150727335Y-86770592D01*
X150837774Y-86504624D01*
X150838025Y-86216639D01*
X150728050Y-85950479D01*
X150524592Y-85746665D01*
X150258624Y-85636226D01*
X150108515Y-85636095D01*
X149806385Y-85333965D01*
X150405887Y-85333965D01*
X150593037Y-85786903D01*
X150939274Y-86133745D01*
X151391885Y-86321685D01*
X151881965Y-86322113D01*
X152334903Y-86134963D01*
X152681745Y-85788726D01*
X152869685Y-85336115D01*
X152870113Y-84846035D01*
X152682963Y-84393097D01*
X152336726Y-84046255D01*
X151884115Y-83858315D01*
X151394035Y-83857887D01*
X150941097Y-84045037D01*
X150594255Y-84391274D01*
X150406315Y-84843885D01*
X150405887Y-85333965D01*
X149806385Y-85333965D01*
X149203210Y-84730790D01*
X149038403Y-84620669D01*
X148844000Y-84582000D01*
X148343743Y-84582000D01*
X148238592Y-84476665D01*
X147972624Y-84366226D01*
X147684639Y-84365975D01*
X147418479Y-84475950D01*
X147214665Y-84679408D01*
X147104226Y-84945376D01*
X147103975Y-85233361D01*
X143640271Y-85233361D01*
X143751200Y-85211296D01*
X144150565Y-84944448D01*
X144417413Y-84545083D01*
X144511117Y-84074000D01*
X144496601Y-84001021D01*
X144564105Y-84068525D01*
X144563975Y-84217361D01*
X144673950Y-84483521D01*
X144877408Y-84687335D01*
X145143376Y-84797774D01*
X145431361Y-84798025D01*
X145697521Y-84688050D01*
X145901335Y-84484592D01*
X146011774Y-84218624D01*
X146011933Y-84035867D01*
X146193361Y-84036025D01*
X146459521Y-83926050D01*
X146663335Y-83722592D01*
X146773774Y-83456624D01*
X146774025Y-83168639D01*
X146669259Y-82915087D01*
X146921376Y-83019774D01*
X147209361Y-83020025D01*
X147475521Y-82910050D01*
X147591809Y-82793965D01*
X150405887Y-82793965D01*
X150593037Y-83246903D01*
X150939274Y-83593745D01*
X151391885Y-83781685D01*
X151881965Y-83782113D01*
X152334903Y-83594963D01*
X152681745Y-83248726D01*
X152869685Y-82796115D01*
X152870113Y-82306035D01*
X152682963Y-81853097D01*
X152336726Y-81506255D01*
X151884115Y-81318315D01*
X151394035Y-81317887D01*
X150941097Y-81505037D01*
X150594255Y-81851274D01*
X150406315Y-82303885D01*
X150405887Y-82793965D01*
X147591809Y-82793965D01*
X147679335Y-82706592D01*
X147789774Y-82440624D01*
X147790025Y-82152639D01*
X147680050Y-81886479D01*
X147476592Y-81682665D01*
X147210624Y-81572226D01*
X147060515Y-81572095D01*
X146286066Y-80797646D01*
X146311757Y-80772000D01*
X146855580Y-80772000D01*
X147104105Y-81020525D01*
X147103975Y-81169361D01*
X147213950Y-81435521D01*
X147417408Y-81639335D01*
X147683376Y-81749774D01*
X147971361Y-81750025D01*
X148237521Y-81640050D01*
X148441335Y-81436592D01*
X148551774Y-81170624D01*
X148552025Y-80882639D01*
X148442050Y-80616479D01*
X148238592Y-80412665D01*
X147972624Y-80302226D01*
X147822515Y-80302095D01*
X147774385Y-80253965D01*
X150405887Y-80253965D01*
X150593037Y-80706903D01*
X150939274Y-81053745D01*
X151391885Y-81241685D01*
X151881965Y-81242113D01*
X152334903Y-81054963D01*
X152681745Y-80708726D01*
X152869685Y-80256115D01*
X152870113Y-79766035D01*
X152682963Y-79313097D01*
X152336726Y-78966255D01*
X151884115Y-78778315D01*
X151394035Y-78777887D01*
X150941097Y-78965037D01*
X150594255Y-79311274D01*
X150406315Y-79763885D01*
X150405887Y-80253965D01*
X147774385Y-80253965D01*
X147425210Y-79904790D01*
X147260403Y-79794669D01*
X147066000Y-79756000D01*
X146311743Y-79756000D01*
X146206592Y-79650665D01*
X145940624Y-79540226D01*
X145652639Y-79539975D01*
X145386479Y-79649950D01*
X145182665Y-79853408D01*
X145080315Y-80099895D01*
X144422073Y-79441653D01*
X144511117Y-78994000D01*
X144417413Y-78522917D01*
X144150565Y-78123552D01*
X143751200Y-77856704D01*
X143280117Y-77763000D01*
X143231883Y-77763000D01*
X142760800Y-77856704D01*
X142361435Y-78123552D01*
X142094587Y-78522917D01*
X142000883Y-78994000D01*
X142094587Y-79465083D01*
X142361435Y-79864448D01*
X142760800Y-80131296D01*
X143231883Y-80225000D01*
X143280117Y-80225000D01*
X143687539Y-80143959D01*
X144928790Y-81385210D01*
X145093597Y-81495331D01*
X145288000Y-81534000D01*
X145585580Y-81534000D01*
X146342105Y-82290525D01*
X146341975Y-82439361D01*
X146446741Y-82692913D01*
X146194624Y-82588226D01*
X146044515Y-82588095D01*
X144631210Y-81174790D01*
X144466403Y-81064669D01*
X144411254Y-81053699D01*
X144150565Y-80663552D01*
X143751200Y-80396704D01*
X143280117Y-80303000D01*
X143231883Y-80303000D01*
X142760800Y-80396704D01*
X142361435Y-80663552D01*
X142094587Y-81062917D01*
X142000883Y-81534000D01*
X142094587Y-82005083D01*
X142150238Y-82088370D01*
X142130624Y-82080226D01*
X141842639Y-82079975D01*
X141821549Y-82088689D01*
X141877413Y-82005083D01*
X141971117Y-81534000D01*
X141877413Y-81062917D01*
X141610565Y-80663552D01*
X141211200Y-80396704D01*
X140740117Y-80303000D01*
X140691883Y-80303000D01*
X140220800Y-80396704D01*
X139821435Y-80663552D01*
X139554587Y-81062917D01*
X139460883Y-81534000D01*
X137124423Y-81534000D01*
X137096726Y-81506255D01*
X136644115Y-81318315D01*
X136154035Y-81317887D01*
X135701097Y-81505037D01*
X135354255Y-81851274D01*
X135166315Y-82303885D01*
X135165887Y-82793965D01*
X129488000Y-82793965D01*
X129488000Y-80253965D01*
X135165887Y-80253965D01*
X135353037Y-80706903D01*
X135699274Y-81053745D01*
X136151885Y-81241685D01*
X136641965Y-81242113D01*
X137094903Y-81054963D01*
X137441745Y-80708726D01*
X137629685Y-80256115D01*
X137630113Y-79766035D01*
X137442963Y-79313097D01*
X137124423Y-78994000D01*
X139460883Y-78994000D01*
X139554587Y-79465083D01*
X139821435Y-79864448D01*
X140220800Y-80131296D01*
X140691883Y-80225000D01*
X140740117Y-80225000D01*
X141211200Y-80131296D01*
X141610565Y-79864448D01*
X141877413Y-79465083D01*
X141971117Y-78994000D01*
X141877413Y-78522917D01*
X141610565Y-78123552D01*
X141211200Y-77856704D01*
X140740117Y-77763000D01*
X140691883Y-77763000D01*
X140220800Y-77856704D01*
X139821435Y-78123552D01*
X139554587Y-78522917D01*
X139460883Y-78994000D01*
X137124423Y-78994000D01*
X137096726Y-78966255D01*
X136644115Y-78778315D01*
X136154035Y-78777887D01*
X135701097Y-78965037D01*
X135354255Y-79311274D01*
X135166315Y-79763885D01*
X135165887Y-80253965D01*
X129488000Y-80253965D01*
X129488000Y-77713965D01*
X135165887Y-77713965D01*
X135353037Y-78166903D01*
X135699274Y-78513745D01*
X136151885Y-78701685D01*
X136641965Y-78702113D01*
X137094903Y-78514963D01*
X137441745Y-78168726D01*
X137629685Y-77716115D01*
X137629686Y-77713965D01*
X150405887Y-77713965D01*
X150593037Y-78166903D01*
X150939274Y-78513745D01*
X151391885Y-78701685D01*
X151881965Y-78702113D01*
X152334903Y-78514963D01*
X152681745Y-78168726D01*
X152869685Y-77716115D01*
X152870113Y-77226035D01*
X152682963Y-76773097D01*
X152336726Y-76426255D01*
X151884115Y-76238315D01*
X151394035Y-76237887D01*
X150941097Y-76425037D01*
X150594255Y-76771274D01*
X150406315Y-77223885D01*
X150405887Y-77713965D01*
X137629686Y-77713965D01*
X137630113Y-77226035D01*
X137442963Y-76773097D01*
X137096726Y-76426255D01*
X136644115Y-76238315D01*
X136154035Y-76237887D01*
X135701097Y-76425037D01*
X135354255Y-76771274D01*
X135166315Y-77223885D01*
X135165887Y-77713965D01*
X129488000Y-77713965D01*
X129488000Y-75173965D01*
X135165887Y-75173965D01*
X135353037Y-75626903D01*
X135699274Y-75973745D01*
X136151885Y-76161685D01*
X136641965Y-76162113D01*
X137094903Y-75974963D01*
X137441745Y-75628726D01*
X137452012Y-75604000D01*
X139477536Y-75604000D01*
X139477536Y-77304000D01*
X139504103Y-77445190D01*
X139587546Y-77574865D01*
X139714866Y-77661859D01*
X139866000Y-77692464D01*
X141566000Y-77692464D01*
X141707190Y-77665897D01*
X141836865Y-77582454D01*
X141923859Y-77455134D01*
X141954464Y-77304000D01*
X141954464Y-75604000D01*
X141927897Y-75462810D01*
X141844454Y-75333135D01*
X141717134Y-75246141D01*
X141566000Y-75215536D01*
X139866000Y-75215536D01*
X139724810Y-75242103D01*
X139595135Y-75325546D01*
X139508141Y-75452866D01*
X139477536Y-75604000D01*
X137452012Y-75604000D01*
X137629685Y-75176115D01*
X137629686Y-75173965D01*
X150405887Y-75173965D01*
X150593037Y-75626903D01*
X150939274Y-75973745D01*
X151391885Y-76161685D01*
X151881965Y-76162113D01*
X152334903Y-75974963D01*
X152681745Y-75628726D01*
X152869685Y-75176115D01*
X152870113Y-74686035D01*
X152682963Y-74233097D01*
X152336726Y-73886255D01*
X151884115Y-73698315D01*
X151394035Y-73697887D01*
X150941097Y-73885037D01*
X150594255Y-74231274D01*
X150406315Y-74683885D01*
X150405887Y-75173965D01*
X137629686Y-75173965D01*
X137630113Y-74686035D01*
X137442963Y-74233097D01*
X137096726Y-73886255D01*
X136644115Y-73698315D01*
X136154035Y-73697887D01*
X135701097Y-73885037D01*
X135354255Y-74231274D01*
X135166315Y-74683885D01*
X135165887Y-75173965D01*
X129488000Y-75173965D01*
X129488000Y-72633965D01*
X135165887Y-72633965D01*
X135353037Y-73086903D01*
X135699274Y-73433745D01*
X136151885Y-73621685D01*
X136641965Y-73622113D01*
X137094903Y-73434963D01*
X137441745Y-73088726D01*
X137629685Y-72636115D01*
X137629686Y-72633965D01*
X150405887Y-72633965D01*
X150593037Y-73086903D01*
X150939274Y-73433745D01*
X151391885Y-73621685D01*
X151881965Y-73622113D01*
X152334903Y-73434963D01*
X152681745Y-73088726D01*
X152869685Y-72636115D01*
X152870113Y-72146035D01*
X152682963Y-71693097D01*
X152336726Y-71346255D01*
X151884115Y-71158315D01*
X151394035Y-71157887D01*
X150941097Y-71345037D01*
X150594255Y-71691274D01*
X150406315Y-72143885D01*
X150405887Y-72633965D01*
X137629686Y-72633965D01*
X137630113Y-72146035D01*
X137442963Y-71693097D01*
X137096726Y-71346255D01*
X136644115Y-71158315D01*
X136154035Y-71157887D01*
X135701097Y-71345037D01*
X135354255Y-71691274D01*
X135166315Y-72143885D01*
X135165887Y-72633965D01*
X129488000Y-72633965D01*
X129488000Y-70093965D01*
X135165887Y-70093965D01*
X135353037Y-70546903D01*
X135699274Y-70893745D01*
X136151885Y-71081685D01*
X136641965Y-71082113D01*
X137094903Y-70894963D01*
X137441745Y-70548726D01*
X137557481Y-70270000D01*
X139985536Y-70270000D01*
X139985536Y-71970000D01*
X140012103Y-72111190D01*
X140095546Y-72240865D01*
X140222866Y-72327859D01*
X140374000Y-72358464D01*
X142074000Y-72358464D01*
X142215190Y-72331897D01*
X142344865Y-72248454D01*
X142431859Y-72121134D01*
X142462464Y-71970000D01*
X142462464Y-71095883D01*
X142533000Y-71095883D01*
X142533000Y-71144117D01*
X142626704Y-71615200D01*
X142893552Y-72014565D01*
X143292917Y-72281413D01*
X143764000Y-72375117D01*
X144235083Y-72281413D01*
X144634448Y-72014565D01*
X144901296Y-71615200D01*
X144995000Y-71144117D01*
X144995000Y-71095883D01*
X145073000Y-71095883D01*
X145073000Y-71144117D01*
X145166704Y-71615200D01*
X145433552Y-72014565D01*
X145832917Y-72281413D01*
X146304000Y-72375117D01*
X146775083Y-72281413D01*
X147174448Y-72014565D01*
X147441296Y-71615200D01*
X147535000Y-71144117D01*
X147535000Y-71095883D01*
X147467329Y-70755674D01*
X150911931Y-70755674D01*
X151006250Y-70935593D01*
X151469778Y-71094717D01*
X151958915Y-71064345D01*
X152269750Y-70935593D01*
X152364069Y-70755674D01*
X151638000Y-70029605D01*
X150911931Y-70755674D01*
X147467329Y-70755674D01*
X147441296Y-70624800D01*
X147174448Y-70225435D01*
X146775083Y-69958587D01*
X146304000Y-69864883D01*
X145832917Y-69958587D01*
X145433552Y-70225435D01*
X145166704Y-70624800D01*
X145073000Y-71095883D01*
X144995000Y-71095883D01*
X144901296Y-70624800D01*
X144634448Y-70225435D01*
X144235083Y-69958587D01*
X143764000Y-69864883D01*
X143292917Y-69958587D01*
X142893552Y-70225435D01*
X142626704Y-70624800D01*
X142533000Y-71095883D01*
X142462464Y-71095883D01*
X142462464Y-70270000D01*
X142435897Y-70128810D01*
X142352454Y-69999135D01*
X142225134Y-69912141D01*
X142074000Y-69881536D01*
X140374000Y-69881536D01*
X140232810Y-69908103D01*
X140103135Y-69991546D01*
X140016141Y-70118866D01*
X139985536Y-70270000D01*
X137557481Y-70270000D01*
X137629685Y-70096115D01*
X137630046Y-69681778D01*
X150393283Y-69681778D01*
X150423655Y-70170915D01*
X150552407Y-70481750D01*
X150732326Y-70576069D01*
X151458395Y-69850000D01*
X151817605Y-69850000D01*
X152543674Y-70576069D01*
X152723593Y-70481750D01*
X152882717Y-70018222D01*
X152852345Y-69529085D01*
X152723593Y-69218250D01*
X152543674Y-69123931D01*
X151817605Y-69850000D01*
X151458395Y-69850000D01*
X150732326Y-69123931D01*
X150552407Y-69218250D01*
X150393283Y-69681778D01*
X137630046Y-69681778D01*
X137630113Y-69606035D01*
X137442963Y-69153097D01*
X137234557Y-68944326D01*
X150911931Y-68944326D01*
X151638000Y-69670395D01*
X152364069Y-68944326D01*
X152269750Y-68764407D01*
X151806222Y-68605283D01*
X151317085Y-68635655D01*
X151006250Y-68764407D01*
X150911931Y-68944326D01*
X137234557Y-68944326D01*
X137096726Y-68806255D01*
X136644115Y-68618315D01*
X136154035Y-68617887D01*
X135701097Y-68805037D01*
X135354255Y-69151274D01*
X135166315Y-69603885D01*
X135165887Y-70093965D01*
X129488000Y-70093965D01*
X129488000Y-66432316D01*
X130606657Y-66432316D01*
X130907611Y-67160680D01*
X131464389Y-67718431D01*
X132192226Y-68020655D01*
X132980316Y-68021343D01*
X133708680Y-67720389D01*
X134266431Y-67163611D01*
X134568655Y-66435774D01*
X134568658Y-66432316D01*
X153720657Y-66432316D01*
X154021611Y-67160680D01*
X154578389Y-67718431D01*
X155306226Y-68020655D01*
X156094316Y-68021343D01*
X156822680Y-67720389D01*
X157380431Y-67163611D01*
X157682655Y-66435774D01*
X157683343Y-65647684D01*
X157382389Y-64919320D01*
X156825611Y-64361569D01*
X156097774Y-64059345D01*
X155309684Y-64058657D01*
X154581320Y-64359611D01*
X154023569Y-64916389D01*
X153721345Y-65644226D01*
X153720657Y-66432316D01*
X134568658Y-66432316D01*
X134569343Y-65647684D01*
X134268389Y-64919320D01*
X133711611Y-64361569D01*
X132983774Y-64059345D01*
X132195684Y-64058657D01*
X131467320Y-64359611D01*
X130909569Y-64916389D01*
X130607345Y-65644226D01*
X130606657Y-66432316D01*
X129488000Y-66432316D01*
X129488000Y-62940000D01*
X158802000Y-62940000D01*
X158802000Y-109780000D01*
X158802000Y-109780000D01*
G37*
X158802000Y-109780000D02*
X129488000Y-109780000D01*
X129488000Y-107072316D01*
X130606657Y-107072316D01*
X130907611Y-107800680D01*
X131464389Y-108358431D01*
X132192226Y-108660655D01*
X132980316Y-108661343D01*
X133708680Y-108360389D01*
X134266431Y-107803611D01*
X134568655Y-107075774D01*
X134568658Y-107072316D01*
X153720657Y-107072316D01*
X154021611Y-107800680D01*
X154578389Y-108358431D01*
X155306226Y-108660655D01*
X156094316Y-108661343D01*
X156822680Y-108360389D01*
X157380431Y-107803611D01*
X157682655Y-107075774D01*
X157683343Y-106287684D01*
X157382389Y-105559320D01*
X156825611Y-105001569D01*
X156097774Y-104699345D01*
X155309684Y-104698657D01*
X154581320Y-104999611D01*
X154023569Y-105556389D01*
X153721345Y-106284226D01*
X153720657Y-107072316D01*
X134568658Y-107072316D01*
X134569343Y-106287684D01*
X134268389Y-105559320D01*
X133711611Y-105001569D01*
X132983774Y-104699345D01*
X132195684Y-104698657D01*
X131467320Y-104999611D01*
X130909569Y-105556389D01*
X130607345Y-106284226D01*
X130606657Y-107072316D01*
X129488000Y-107072316D01*
X129488000Y-103113965D01*
X135165887Y-103113965D01*
X135353037Y-103566903D01*
X135699274Y-103913745D01*
X136151885Y-104101685D01*
X136641965Y-104102113D01*
X137094903Y-103914963D01*
X137441745Y-103568726D01*
X137629685Y-103116115D01*
X137629686Y-103113965D01*
X137705887Y-103113965D01*
X137893037Y-103566903D01*
X138239274Y-103913745D01*
X138691885Y-104101685D01*
X139181965Y-104102113D01*
X139634903Y-103914963D01*
X139981745Y-103568726D01*
X140169685Y-103116115D01*
X140169686Y-103113965D01*
X140245887Y-103113965D01*
X140433037Y-103566903D01*
X140779274Y-103913745D01*
X141231885Y-104101685D01*
X141721965Y-104102113D01*
X142174903Y-103914963D01*
X142314435Y-103775674D01*
X143291931Y-103775674D01*
X143386250Y-103955593D01*
X143849778Y-104114717D01*
X144338915Y-104084345D01*
X144649750Y-103955593D01*
X144744069Y-103775674D01*
X144018000Y-103049605D01*
X143291931Y-103775674D01*
X142314435Y-103775674D01*
X142521745Y-103568726D01*
X142709685Y-103116115D01*
X142710046Y-102701778D01*
X142773283Y-102701778D01*
X142803655Y-103190915D01*
X142932407Y-103501750D01*
X143112326Y-103596069D01*
X143838395Y-102870000D01*
X144197605Y-102870000D01*
X144923674Y-103596069D01*
X145103593Y-103501750D01*
X145236715Y-103113965D01*
X145325887Y-103113965D01*
X145513037Y-103566903D01*
X145859274Y-103913745D01*
X146311885Y-104101685D01*
X146801965Y-104102113D01*
X147254903Y-103914963D01*
X147601745Y-103568726D01*
X147789685Y-103116115D01*
X147789686Y-103113965D01*
X147865887Y-103113965D01*
X148053037Y-103566903D01*
X148399274Y-103913745D01*
X148851885Y-104101685D01*
X149341965Y-104102113D01*
X149794903Y-103914963D01*
X150141745Y-103568726D01*
X150329685Y-103116115D01*
X150329686Y-103113965D01*
X150405887Y-103113965D01*
X150593037Y-103566903D01*
X150939274Y-103913745D01*
X151391885Y-104101685D01*
X151881965Y-104102113D01*
X152334903Y-103914963D01*
X152681745Y-103568726D01*
X152869685Y-103116115D01*
X152870113Y-102626035D01*
X152682963Y-102173097D01*
X152336726Y-101826255D01*
X151884115Y-101638315D01*
X151394035Y-101637887D01*
X150941097Y-101825037D01*
X150594255Y-102171274D01*
X150406315Y-102623885D01*
X150405887Y-103113965D01*
X150329686Y-103113965D01*
X150330113Y-102626035D01*
X150142963Y-102173097D01*
X149796726Y-101826255D01*
X149344115Y-101638315D01*
X148854035Y-101637887D01*
X148401097Y-101825037D01*
X148054255Y-102171274D01*
X147866315Y-102623885D01*
X147865887Y-103113965D01*
X147789686Y-103113965D01*
X147790113Y-102626035D01*
X147602963Y-102173097D01*
X147256726Y-101826255D01*
X146804115Y-101638315D01*
X146314035Y-101637887D01*
X145861097Y-101825037D01*
X145514255Y-102171274D01*
X145326315Y-102623885D01*
X145325887Y-103113965D01*
X145236715Y-103113965D01*
X145262717Y-103038222D01*
X145232345Y-102549085D01*
X145103593Y-102238250D01*
X144923674Y-102143931D01*
X144197605Y-102870000D01*
X143838395Y-102870000D01*
X143112326Y-102143931D01*
X142932407Y-102238250D01*
X142773283Y-102701778D01*
X142710046Y-102701778D01*
X142710113Y-102626035D01*
X142522963Y-102173097D01*
X142314557Y-101964326D01*
X143291931Y-101964326D01*
X144018000Y-102690395D01*
X144744069Y-101964326D01*
X144649750Y-101784407D01*
X144186222Y-101625283D01*
X143697085Y-101655655D01*
X143386250Y-101784407D01*
X143291931Y-101964326D01*
X142314557Y-101964326D01*
X142176726Y-101826255D01*
X141724115Y-101638315D01*
X141234035Y-101637887D01*
X140781097Y-101825037D01*
X140434255Y-102171274D01*
X140246315Y-102623885D01*
X140245887Y-103113965D01*
X140169686Y-103113965D01*
X140170113Y-102626035D01*
X139982963Y-102173097D01*
X139636726Y-101826255D01*
X139184115Y-101638315D01*
X138694035Y-101637887D01*
X138241097Y-101825037D01*
X137894255Y-102171274D01*
X137706315Y-102623885D01*
X137705887Y-103113965D01*
X137629686Y-103113965D01*
X137630113Y-102626035D01*
X137442963Y-102173097D01*
X137096726Y-101826255D01*
X136644115Y-101638315D01*
X136154035Y-101637887D01*
X135701097Y-101825037D01*
X135354255Y-102171274D01*
X135166315Y-102623885D01*
X135165887Y-103113965D01*
X129488000Y-103113965D01*
X129488000Y-94996000D01*
X134366000Y-94996000D01*
X134366000Y-98806000D01*
X134404669Y-99000403D01*
X134514790Y-99165210D01*
X135244698Y-99895118D01*
X135166315Y-100083885D01*
X135165887Y-100573965D01*
X135353037Y-101026903D01*
X135699274Y-101373745D01*
X136151885Y-101561685D01*
X136641965Y-101562113D01*
X137094903Y-101374963D01*
X137441745Y-101028726D01*
X137629685Y-100576115D01*
X137629686Y-100573965D01*
X150405887Y-100573965D01*
X150593037Y-101026903D01*
X150939274Y-101373745D01*
X151391885Y-101561685D01*
X151881965Y-101562113D01*
X152334903Y-101374963D01*
X152681745Y-101028726D01*
X152869685Y-100576115D01*
X152870113Y-100086035D01*
X152682963Y-99633097D01*
X152336726Y-99286255D01*
X151884115Y-99098315D01*
X151394035Y-99097887D01*
X150941097Y-99285037D01*
X150594255Y-99631274D01*
X150406315Y-100083885D01*
X150405887Y-100573965D01*
X137629686Y-100573965D01*
X137630113Y-100086035D01*
X137442963Y-99633097D01*
X137440850Y-99630980D01*
X139526511Y-99630980D01*
X139650755Y-99930964D01*
X139967944Y-100291652D01*
X140399018Y-100503501D01*
X140589000Y-100443193D01*
X140589000Y-99441000D01*
X140843000Y-99441000D01*
X140843000Y-100443193D01*
X141032982Y-100503501D01*
X141464056Y-100291652D01*
X141781245Y-99930964D01*
X141905489Y-99630980D01*
X141844627Y-99441000D01*
X140843000Y-99441000D01*
X140589000Y-99441000D01*
X139587373Y-99441000D01*
X139526511Y-99630980D01*
X137440850Y-99630980D01*
X137096726Y-99286255D01*
X136644115Y-99098315D01*
X136154035Y-99097887D01*
X135963171Y-99176750D01*
X135382000Y-98595580D01*
X135382000Y-98515917D01*
X135699274Y-98833745D01*
X136151885Y-99021685D01*
X136641965Y-99022113D01*
X136702694Y-98997020D01*
X139526511Y-98997020D01*
X139587373Y-99187000D01*
X140589000Y-99187000D01*
X140589000Y-98184807D01*
X140843000Y-98184807D01*
X140843000Y-99187000D01*
X141844627Y-99187000D01*
X141905489Y-98997020D01*
X141781245Y-98697036D01*
X141464056Y-98336348D01*
X141032982Y-98124499D01*
X140843000Y-98184807D01*
X140589000Y-98184807D01*
X140399018Y-98124499D01*
X139967944Y-98336348D01*
X139650755Y-98697036D01*
X139526511Y-98997020D01*
X136702694Y-98997020D01*
X137094903Y-98834963D01*
X137441745Y-98488726D01*
X137629685Y-98036115D01*
X137629686Y-98033965D01*
X150405887Y-98033965D01*
X150593037Y-98486903D01*
X150939274Y-98833745D01*
X151391885Y-99021685D01*
X151881965Y-99022113D01*
X152334903Y-98834963D01*
X152681745Y-98488726D01*
X152869685Y-98036115D01*
X152870113Y-97546035D01*
X152682963Y-97093097D01*
X152336726Y-96746255D01*
X151884115Y-96558315D01*
X151394035Y-96557887D01*
X150941097Y-96745037D01*
X150594255Y-97091274D01*
X150406315Y-97543885D01*
X150405887Y-98033965D01*
X137629686Y-98033965D01*
X137629905Y-97784515D01*
X139402420Y-96012000D01*
X139748972Y-96012000D01*
X139554587Y-96302917D01*
X139460883Y-96774000D01*
X139554587Y-97245083D01*
X139821435Y-97644448D01*
X140220800Y-97911296D01*
X140691883Y-98005000D01*
X140740117Y-98005000D01*
X141211200Y-97911296D01*
X141610565Y-97644448D01*
X141877413Y-97245083D01*
X141971117Y-96774000D01*
X142000883Y-96774000D01*
X142094587Y-97245083D01*
X142361435Y-97644448D01*
X142760800Y-97911296D01*
X143231883Y-98005000D01*
X143280117Y-98005000D01*
X143751200Y-97911296D01*
X144150565Y-97644448D01*
X144417413Y-97245083D01*
X144511117Y-96774000D01*
X144417413Y-96302917D01*
X144150565Y-95903552D01*
X143751200Y-95636704D01*
X143280117Y-95543000D01*
X143231883Y-95543000D01*
X142760800Y-95636704D01*
X142361435Y-95903552D01*
X142094587Y-96302917D01*
X142000883Y-96774000D01*
X141971117Y-96774000D01*
X141877413Y-96302917D01*
X141683028Y-96012000D01*
X141986000Y-96012000D01*
X142180403Y-95973331D01*
X142345210Y-95863210D01*
X142714455Y-95493965D01*
X150405887Y-95493965D01*
X150593037Y-95946903D01*
X150939274Y-96293745D01*
X151391885Y-96481685D01*
X151881965Y-96482113D01*
X152334903Y-96294963D01*
X152681745Y-95948726D01*
X152869685Y-95496115D01*
X152870113Y-95006035D01*
X152682963Y-94553097D01*
X152336726Y-94206255D01*
X151884115Y-94018315D01*
X151394035Y-94017887D01*
X150941097Y-94205037D01*
X150594255Y-94551274D01*
X150406315Y-95003885D01*
X150405887Y-95493965D01*
X142714455Y-95493965D01*
X142824461Y-95383959D01*
X143231883Y-95465000D01*
X143280117Y-95465000D01*
X143751200Y-95371296D01*
X144150565Y-95104448D01*
X144417413Y-94705083D01*
X144511117Y-94234000D01*
X144417413Y-93762917D01*
X144150565Y-93363552D01*
X143751200Y-93096704D01*
X143280117Y-93003000D01*
X143231883Y-93003000D01*
X142760800Y-93096704D01*
X142361435Y-93363552D01*
X142094587Y-93762917D01*
X142000883Y-94234000D01*
X142089927Y-94681653D01*
X141775580Y-94996000D01*
X141683028Y-94996000D01*
X141877413Y-94705083D01*
X141971117Y-94234000D01*
X141877413Y-93762917D01*
X141610565Y-93363552D01*
X141211200Y-93096704D01*
X140740117Y-93003000D01*
X140691883Y-93003000D01*
X140220800Y-93096704D01*
X139821435Y-93363552D01*
X139748972Y-93472000D01*
X137378360Y-93472000D01*
X137441745Y-93408726D01*
X137629685Y-92956115D01*
X137629686Y-92953965D01*
X150405887Y-92953965D01*
X150593037Y-93406903D01*
X150939274Y-93753745D01*
X151391885Y-93941685D01*
X151881965Y-93942113D01*
X152334903Y-93754963D01*
X152681745Y-93408726D01*
X152869685Y-92956115D01*
X152870113Y-92466035D01*
X152682963Y-92013097D01*
X152336726Y-91666255D01*
X151884115Y-91478315D01*
X151394035Y-91477887D01*
X150941097Y-91665037D01*
X150594255Y-92011274D01*
X150406315Y-92463885D01*
X150405887Y-92953965D01*
X137629686Y-92953965D01*
X137630113Y-92466035D01*
X137442963Y-92013097D01*
X137124423Y-91694000D01*
X139460883Y-91694000D01*
X139554587Y-92165083D01*
X139821435Y-92564448D01*
X140220800Y-92831296D01*
X140691883Y-92925000D01*
X140740117Y-92925000D01*
X141211200Y-92831296D01*
X141610565Y-92564448D01*
X141877413Y-92165083D01*
X141971117Y-91694000D01*
X142000883Y-91694000D01*
X142094587Y-92165083D01*
X142361435Y-92564448D01*
X142760800Y-92831296D01*
X143231883Y-92925000D01*
X143280117Y-92925000D01*
X143751200Y-92831296D01*
X144150565Y-92564448D01*
X144417413Y-92165083D01*
X144511117Y-91694000D01*
X144417413Y-91222917D01*
X144150565Y-90823552D01*
X143751200Y-90556704D01*
X143280117Y-90463000D01*
X143231883Y-90463000D01*
X142760800Y-90556704D01*
X142361435Y-90823552D01*
X142094587Y-91222917D01*
X142000883Y-91694000D01*
X141971117Y-91694000D01*
X141877413Y-91222917D01*
X141610565Y-90823552D01*
X141211200Y-90556704D01*
X140740117Y-90463000D01*
X140691883Y-90463000D01*
X140220800Y-90556704D01*
X139821435Y-90823552D01*
X139554587Y-91222917D01*
X139460883Y-91694000D01*
X137124423Y-91694000D01*
X137096726Y-91666255D01*
X136644115Y-91478315D01*
X136154035Y-91477887D01*
X135701097Y-91665037D01*
X135354255Y-92011274D01*
X135166315Y-92463885D01*
X135165887Y-92953965D01*
X135353037Y-93406903D01*
X135552242Y-93606456D01*
X135530790Y-93620790D01*
X134514790Y-94636790D01*
X134404669Y-94801597D01*
X134366000Y-94996000D01*
X129488000Y-94996000D01*
X129488000Y-90413965D01*
X135165887Y-90413965D01*
X135353037Y-90866903D01*
X135699274Y-91213745D01*
X136151885Y-91401685D01*
X136641965Y-91402113D01*
X137094903Y-91214963D01*
X137441745Y-90868726D01*
X137629685Y-90416115D01*
X137629686Y-90413965D01*
X150405887Y-90413965D01*
X150593037Y-90866903D01*
X150939274Y-91213745D01*
X151391885Y-91401685D01*
X151881965Y-91402113D01*
X152334903Y-91214963D01*
X152681745Y-90868726D01*
X152869685Y-90416115D01*
X152870113Y-89926035D01*
X152682963Y-89473097D01*
X152336726Y-89126255D01*
X151884115Y-88938315D01*
X151394035Y-88937887D01*
X150941097Y-89125037D01*
X150594255Y-89471274D01*
X150406315Y-89923885D01*
X150405887Y-90413965D01*
X137629686Y-90413965D01*
X137630113Y-89926035D01*
X137442963Y-89473097D01*
X137124423Y-89154000D01*
X142000883Y-89154000D01*
X142094587Y-89625083D01*
X142361435Y-90024448D01*
X142760800Y-90291296D01*
X143231883Y-90385000D01*
X143280117Y-90385000D01*
X143751200Y-90291296D01*
X144150565Y-90024448D01*
X144417413Y-89625083D01*
X144511117Y-89154000D01*
X144417413Y-88682917D01*
X144150565Y-88283552D01*
X143751200Y-88016704D01*
X143280117Y-87923000D01*
X143231883Y-87923000D01*
X142760800Y-88016704D01*
X142361435Y-88283552D01*
X142094587Y-88682917D01*
X142000883Y-89154000D01*
X137124423Y-89154000D01*
X137096726Y-89126255D01*
X136644115Y-88938315D01*
X136154035Y-88937887D01*
X135701097Y-89125037D01*
X135354255Y-89471274D01*
X135166315Y-89923885D01*
X135165887Y-90413965D01*
X129488000Y-90413965D01*
X129488000Y-87873965D01*
X135165887Y-87873965D01*
X135353037Y-88326903D01*
X135699274Y-88673745D01*
X136151885Y-88861685D01*
X136641965Y-88862113D01*
X137094903Y-88674963D01*
X137441745Y-88328726D01*
X137629685Y-87876115D01*
X137629686Y-87873965D01*
X150405887Y-87873965D01*
X150593037Y-88326903D01*
X150939274Y-88673745D01*
X151391885Y-88861685D01*
X151881965Y-88862113D01*
X152334903Y-88674963D01*
X152681745Y-88328726D01*
X152869685Y-87876115D01*
X152870113Y-87386035D01*
X152682963Y-86933097D01*
X152336726Y-86586255D01*
X151884115Y-86398315D01*
X151394035Y-86397887D01*
X150941097Y-86585037D01*
X150594255Y-86931274D01*
X150406315Y-87383885D01*
X150405887Y-87873965D01*
X137629686Y-87873965D01*
X137630113Y-87386035D01*
X137442963Y-86933097D01*
X137440850Y-86930980D01*
X142066511Y-86930980D01*
X142190755Y-87230964D01*
X142507944Y-87591652D01*
X142939018Y-87803501D01*
X143129000Y-87743193D01*
X143129000Y-86741000D01*
X143383000Y-86741000D01*
X143383000Y-87743193D01*
X143572982Y-87803501D01*
X144004056Y-87591652D01*
X144321245Y-87230964D01*
X144445489Y-86930980D01*
X144384627Y-86741000D01*
X143383000Y-86741000D01*
X143129000Y-86741000D01*
X142127373Y-86741000D01*
X142066511Y-86930980D01*
X137440850Y-86930980D01*
X137096726Y-86586255D01*
X136644115Y-86398315D01*
X136154035Y-86397887D01*
X135701097Y-86585037D01*
X135354255Y-86931274D01*
X135166315Y-87383885D01*
X135165887Y-87873965D01*
X129488000Y-87873965D01*
X129488000Y-85333965D01*
X135165887Y-85333965D01*
X135353037Y-85786903D01*
X135699274Y-86133745D01*
X136151885Y-86321685D01*
X136641965Y-86322113D01*
X136702694Y-86297020D01*
X142066511Y-86297020D01*
X142127373Y-86487000D01*
X143129000Y-86487000D01*
X143129000Y-85484807D01*
X143383000Y-85484807D01*
X143383000Y-86487000D01*
X144384627Y-86487000D01*
X144445489Y-86297020D01*
X144321245Y-85997036D01*
X144004056Y-85636348D01*
X143572982Y-85424499D01*
X143383000Y-85484807D01*
X143129000Y-85484807D01*
X142939018Y-85424499D01*
X142507944Y-85636348D01*
X142190755Y-85997036D01*
X142066511Y-86297020D01*
X136702694Y-86297020D01*
X137094903Y-86134963D01*
X137441745Y-85788726D01*
X137629685Y-85336115D01*
X137630113Y-84846035D01*
X137442963Y-84393097D01*
X137096726Y-84046255D01*
X136644115Y-83858315D01*
X136154035Y-83857887D01*
X135701097Y-84045037D01*
X135354255Y-84391274D01*
X135166315Y-84843885D01*
X135165887Y-85333965D01*
X129488000Y-85333965D01*
X129488000Y-82793965D01*
X135165887Y-82793965D01*
X135353037Y-83246903D01*
X135699274Y-83593745D01*
X136151885Y-83781685D01*
X136641965Y-83782113D01*
X137094903Y-83594963D01*
X137441745Y-83248726D01*
X137629685Y-82796115D01*
X137630113Y-82306035D01*
X137442963Y-81853097D01*
X137124423Y-81534000D01*
X139460883Y-81534000D01*
X139554587Y-82005083D01*
X139821435Y-82404448D01*
X140220800Y-82671296D01*
X140691883Y-82765000D01*
X140740117Y-82765000D01*
X141211200Y-82671296D01*
X141274969Y-82628687D01*
X141262226Y-82659376D01*
X141261975Y-82947361D01*
X141275257Y-82979506D01*
X141211200Y-82936704D01*
X140740117Y-82843000D01*
X140691883Y-82843000D01*
X140220800Y-82936704D01*
X139821435Y-83203552D01*
X139554587Y-83602917D01*
X139460883Y-84074000D01*
X139554587Y-84545083D01*
X139821435Y-84944448D01*
X140220800Y-85211296D01*
X140691883Y-85305000D01*
X140740117Y-85305000D01*
X141211200Y-85211296D01*
X141610565Y-84944448D01*
X141877413Y-84545083D01*
X141971117Y-84074000D01*
X141877413Y-83602917D01*
X141821762Y-83519630D01*
X141841376Y-83527774D01*
X142129361Y-83528025D01*
X142150451Y-83519311D01*
X142094587Y-83602917D01*
X142000883Y-84074000D01*
X142094587Y-84545083D01*
X142361435Y-84944448D01*
X142760800Y-85211296D01*
X143231883Y-85305000D01*
X143280117Y-85305000D01*
X143640271Y-85233361D01*
X147103975Y-85233361D01*
X147213950Y-85499521D01*
X147417408Y-85703335D01*
X147683376Y-85813774D01*
X147971361Y-85814025D01*
X148237521Y-85704050D01*
X148343757Y-85598000D01*
X148633580Y-85598000D01*
X149390105Y-86354525D01*
X149389975Y-86503361D01*
X149499950Y-86769521D01*
X149703408Y-86973335D01*
X149969376Y-87083774D01*
X150257361Y-87084025D01*
X150523521Y-86974050D01*
X150727335Y-86770592D01*
X150837774Y-86504624D01*
X150838025Y-86216639D01*
X150728050Y-85950479D01*
X150524592Y-85746665D01*
X150258624Y-85636226D01*
X150108515Y-85636095D01*
X149806385Y-85333965D01*
X150405887Y-85333965D01*
X150593037Y-85786903D01*
X150939274Y-86133745D01*
X151391885Y-86321685D01*
X151881965Y-86322113D01*
X152334903Y-86134963D01*
X152681745Y-85788726D01*
X152869685Y-85336115D01*
X152870113Y-84846035D01*
X152682963Y-84393097D01*
X152336726Y-84046255D01*
X151884115Y-83858315D01*
X151394035Y-83857887D01*
X150941097Y-84045037D01*
X150594255Y-84391274D01*
X150406315Y-84843885D01*
X150405887Y-85333965D01*
X149806385Y-85333965D01*
X149203210Y-84730790D01*
X149038403Y-84620669D01*
X148844000Y-84582000D01*
X148343743Y-84582000D01*
X148238592Y-84476665D01*
X147972624Y-84366226D01*
X147684639Y-84365975D01*
X147418479Y-84475950D01*
X147214665Y-84679408D01*
X147104226Y-84945376D01*
X147103975Y-85233361D01*
X143640271Y-85233361D01*
X143751200Y-85211296D01*
X144150565Y-84944448D01*
X144417413Y-84545083D01*
X144511117Y-84074000D01*
X144496601Y-84001021D01*
X144564105Y-84068525D01*
X144563975Y-84217361D01*
X144673950Y-84483521D01*
X144877408Y-84687335D01*
X145143376Y-84797774D01*
X145431361Y-84798025D01*
X145697521Y-84688050D01*
X145901335Y-84484592D01*
X146011774Y-84218624D01*
X146011933Y-84035867D01*
X146193361Y-84036025D01*
X146459521Y-83926050D01*
X146663335Y-83722592D01*
X146773774Y-83456624D01*
X146774025Y-83168639D01*
X146669259Y-82915087D01*
X146921376Y-83019774D01*
X147209361Y-83020025D01*
X147475521Y-82910050D01*
X147591809Y-82793965D01*
X150405887Y-82793965D01*
X150593037Y-83246903D01*
X150939274Y-83593745D01*
X151391885Y-83781685D01*
X151881965Y-83782113D01*
X152334903Y-83594963D01*
X152681745Y-83248726D01*
X152869685Y-82796115D01*
X152870113Y-82306035D01*
X152682963Y-81853097D01*
X152336726Y-81506255D01*
X151884115Y-81318315D01*
X151394035Y-81317887D01*
X150941097Y-81505037D01*
X150594255Y-81851274D01*
X150406315Y-82303885D01*
X150405887Y-82793965D01*
X147591809Y-82793965D01*
X147679335Y-82706592D01*
X147789774Y-82440624D01*
X147790025Y-82152639D01*
X147680050Y-81886479D01*
X147476592Y-81682665D01*
X147210624Y-81572226D01*
X147060515Y-81572095D01*
X146286066Y-80797646D01*
X146311757Y-80772000D01*
X146855580Y-80772000D01*
X147104105Y-81020525D01*
X147103975Y-81169361D01*
X147213950Y-81435521D01*
X147417408Y-81639335D01*
X147683376Y-81749774D01*
X147971361Y-81750025D01*
X148237521Y-81640050D01*
X148441335Y-81436592D01*
X148551774Y-81170624D01*
X148552025Y-80882639D01*
X148442050Y-80616479D01*
X148238592Y-80412665D01*
X147972624Y-80302226D01*
X147822515Y-80302095D01*
X147774385Y-80253965D01*
X150405887Y-80253965D01*
X150593037Y-80706903D01*
X150939274Y-81053745D01*
X151391885Y-81241685D01*
X151881965Y-81242113D01*
X152334903Y-81054963D01*
X152681745Y-80708726D01*
X152869685Y-80256115D01*
X152870113Y-79766035D01*
X152682963Y-79313097D01*
X152336726Y-78966255D01*
X151884115Y-78778315D01*
X151394035Y-78777887D01*
X150941097Y-78965037D01*
X150594255Y-79311274D01*
X150406315Y-79763885D01*
X150405887Y-80253965D01*
X147774385Y-80253965D01*
X147425210Y-79904790D01*
X147260403Y-79794669D01*
X147066000Y-79756000D01*
X146311743Y-79756000D01*
X146206592Y-79650665D01*
X145940624Y-79540226D01*
X145652639Y-79539975D01*
X145386479Y-79649950D01*
X145182665Y-79853408D01*
X145080315Y-80099895D01*
X144422073Y-79441653D01*
X144511117Y-78994000D01*
X144417413Y-78522917D01*
X144150565Y-78123552D01*
X143751200Y-77856704D01*
X143280117Y-77763000D01*
X143231883Y-77763000D01*
X142760800Y-77856704D01*
X142361435Y-78123552D01*
X142094587Y-78522917D01*
X142000883Y-78994000D01*
X142094587Y-79465083D01*
X142361435Y-79864448D01*
X142760800Y-80131296D01*
X143231883Y-80225000D01*
X143280117Y-80225000D01*
X143687539Y-80143959D01*
X144928790Y-81385210D01*
X145093597Y-81495331D01*
X145288000Y-81534000D01*
X145585580Y-81534000D01*
X146342105Y-82290525D01*
X146341975Y-82439361D01*
X146446741Y-82692913D01*
X146194624Y-82588226D01*
X146044515Y-82588095D01*
X144631210Y-81174790D01*
X144466403Y-81064669D01*
X144411254Y-81053699D01*
X144150565Y-80663552D01*
X143751200Y-80396704D01*
X143280117Y-80303000D01*
X143231883Y-80303000D01*
X142760800Y-80396704D01*
X142361435Y-80663552D01*
X142094587Y-81062917D01*
X142000883Y-81534000D01*
X142094587Y-82005083D01*
X142150238Y-82088370D01*
X142130624Y-82080226D01*
X141842639Y-82079975D01*
X141821549Y-82088689D01*
X141877413Y-82005083D01*
X141971117Y-81534000D01*
X141877413Y-81062917D01*
X141610565Y-80663552D01*
X141211200Y-80396704D01*
X140740117Y-80303000D01*
X140691883Y-80303000D01*
X140220800Y-80396704D01*
X139821435Y-80663552D01*
X139554587Y-81062917D01*
X139460883Y-81534000D01*
X137124423Y-81534000D01*
X137096726Y-81506255D01*
X136644115Y-81318315D01*
X136154035Y-81317887D01*
X135701097Y-81505037D01*
X135354255Y-81851274D01*
X135166315Y-82303885D01*
X135165887Y-82793965D01*
X129488000Y-82793965D01*
X129488000Y-80253965D01*
X135165887Y-80253965D01*
X135353037Y-80706903D01*
X135699274Y-81053745D01*
X136151885Y-81241685D01*
X136641965Y-81242113D01*
X137094903Y-81054963D01*
X137441745Y-80708726D01*
X137629685Y-80256115D01*
X137630113Y-79766035D01*
X137442963Y-79313097D01*
X137124423Y-78994000D01*
X139460883Y-78994000D01*
X139554587Y-79465083D01*
X139821435Y-79864448D01*
X140220800Y-80131296D01*
X140691883Y-80225000D01*
X140740117Y-80225000D01*
X141211200Y-80131296D01*
X141610565Y-79864448D01*
X141877413Y-79465083D01*
X141971117Y-78994000D01*
X141877413Y-78522917D01*
X141610565Y-78123552D01*
X141211200Y-77856704D01*
X140740117Y-77763000D01*
X140691883Y-77763000D01*
X140220800Y-77856704D01*
X139821435Y-78123552D01*
X139554587Y-78522917D01*
X139460883Y-78994000D01*
X137124423Y-78994000D01*
X137096726Y-78966255D01*
X136644115Y-78778315D01*
X136154035Y-78777887D01*
X135701097Y-78965037D01*
X135354255Y-79311274D01*
X135166315Y-79763885D01*
X135165887Y-80253965D01*
X129488000Y-80253965D01*
X129488000Y-77713965D01*
X135165887Y-77713965D01*
X135353037Y-78166903D01*
X135699274Y-78513745D01*
X136151885Y-78701685D01*
X136641965Y-78702113D01*
X137094903Y-78514963D01*
X137441745Y-78168726D01*
X137629685Y-77716115D01*
X137629686Y-77713965D01*
X150405887Y-77713965D01*
X150593037Y-78166903D01*
X150939274Y-78513745D01*
X151391885Y-78701685D01*
X151881965Y-78702113D01*
X152334903Y-78514963D01*
X152681745Y-78168726D01*
X152869685Y-77716115D01*
X152870113Y-77226035D01*
X152682963Y-76773097D01*
X152336726Y-76426255D01*
X151884115Y-76238315D01*
X151394035Y-76237887D01*
X150941097Y-76425037D01*
X150594255Y-76771274D01*
X150406315Y-77223885D01*
X150405887Y-77713965D01*
X137629686Y-77713965D01*
X137630113Y-77226035D01*
X137442963Y-76773097D01*
X137096726Y-76426255D01*
X136644115Y-76238315D01*
X136154035Y-76237887D01*
X135701097Y-76425037D01*
X135354255Y-76771274D01*
X135166315Y-77223885D01*
X135165887Y-77713965D01*
X129488000Y-77713965D01*
X129488000Y-75173965D01*
X135165887Y-75173965D01*
X135353037Y-75626903D01*
X135699274Y-75973745D01*
X136151885Y-76161685D01*
X136641965Y-76162113D01*
X137094903Y-75974963D01*
X137441745Y-75628726D01*
X137452012Y-75604000D01*
X139477536Y-75604000D01*
X139477536Y-77304000D01*
X139504103Y-77445190D01*
X139587546Y-77574865D01*
X139714866Y-77661859D01*
X139866000Y-77692464D01*
X141566000Y-77692464D01*
X141707190Y-77665897D01*
X141836865Y-77582454D01*
X141923859Y-77455134D01*
X141954464Y-77304000D01*
X141954464Y-75604000D01*
X141927897Y-75462810D01*
X141844454Y-75333135D01*
X141717134Y-75246141D01*
X141566000Y-75215536D01*
X139866000Y-75215536D01*
X139724810Y-75242103D01*
X139595135Y-75325546D01*
X139508141Y-75452866D01*
X139477536Y-75604000D01*
X137452012Y-75604000D01*
X137629685Y-75176115D01*
X137629686Y-75173965D01*
X150405887Y-75173965D01*
X150593037Y-75626903D01*
X150939274Y-75973745D01*
X151391885Y-76161685D01*
X151881965Y-76162113D01*
X152334903Y-75974963D01*
X152681745Y-75628726D01*
X152869685Y-75176115D01*
X152870113Y-74686035D01*
X152682963Y-74233097D01*
X152336726Y-73886255D01*
X151884115Y-73698315D01*
X151394035Y-73697887D01*
X150941097Y-73885037D01*
X150594255Y-74231274D01*
X150406315Y-74683885D01*
X150405887Y-75173965D01*
X137629686Y-75173965D01*
X137630113Y-74686035D01*
X137442963Y-74233097D01*
X137096726Y-73886255D01*
X136644115Y-73698315D01*
X136154035Y-73697887D01*
X135701097Y-73885037D01*
X135354255Y-74231274D01*
X135166315Y-74683885D01*
X135165887Y-75173965D01*
X129488000Y-75173965D01*
X129488000Y-72633965D01*
X135165887Y-72633965D01*
X135353037Y-73086903D01*
X135699274Y-73433745D01*
X136151885Y-73621685D01*
X136641965Y-73622113D01*
X137094903Y-73434963D01*
X137441745Y-73088726D01*
X137629685Y-72636115D01*
X137629686Y-72633965D01*
X150405887Y-72633965D01*
X150593037Y-73086903D01*
X150939274Y-73433745D01*
X151391885Y-73621685D01*
X151881965Y-73622113D01*
X152334903Y-73434963D01*
X152681745Y-73088726D01*
X152869685Y-72636115D01*
X152870113Y-72146035D01*
X152682963Y-71693097D01*
X152336726Y-71346255D01*
X151884115Y-71158315D01*
X151394035Y-71157887D01*
X150941097Y-71345037D01*
X150594255Y-71691274D01*
X150406315Y-72143885D01*
X150405887Y-72633965D01*
X137629686Y-72633965D01*
X137630113Y-72146035D01*
X137442963Y-71693097D01*
X137096726Y-71346255D01*
X136644115Y-71158315D01*
X136154035Y-71157887D01*
X135701097Y-71345037D01*
X135354255Y-71691274D01*
X135166315Y-72143885D01*
X135165887Y-72633965D01*
X129488000Y-72633965D01*
X129488000Y-70093965D01*
X135165887Y-70093965D01*
X135353037Y-70546903D01*
X135699274Y-70893745D01*
X136151885Y-71081685D01*
X136641965Y-71082113D01*
X137094903Y-70894963D01*
X137441745Y-70548726D01*
X137557481Y-70270000D01*
X139985536Y-70270000D01*
X139985536Y-71970000D01*
X140012103Y-72111190D01*
X140095546Y-72240865D01*
X140222866Y-72327859D01*
X140374000Y-72358464D01*
X142074000Y-72358464D01*
X142215190Y-72331897D01*
X142344865Y-72248454D01*
X142431859Y-72121134D01*
X142462464Y-71970000D01*
X142462464Y-71095883D01*
X142533000Y-71095883D01*
X142533000Y-71144117D01*
X142626704Y-71615200D01*
X142893552Y-72014565D01*
X143292917Y-72281413D01*
X143764000Y-72375117D01*
X144235083Y-72281413D01*
X144634448Y-72014565D01*
X144901296Y-71615200D01*
X144995000Y-71144117D01*
X144995000Y-71095883D01*
X145073000Y-71095883D01*
X145073000Y-71144117D01*
X145166704Y-71615200D01*
X145433552Y-72014565D01*
X145832917Y-72281413D01*
X146304000Y-72375117D01*
X146775083Y-72281413D01*
X147174448Y-72014565D01*
X147441296Y-71615200D01*
X147535000Y-71144117D01*
X147535000Y-71095883D01*
X147467329Y-70755674D01*
X150911931Y-70755674D01*
X151006250Y-70935593D01*
X151469778Y-71094717D01*
X151958915Y-71064345D01*
X152269750Y-70935593D01*
X152364069Y-70755674D01*
X151638000Y-70029605D01*
X150911931Y-70755674D01*
X147467329Y-70755674D01*
X147441296Y-70624800D01*
X147174448Y-70225435D01*
X146775083Y-69958587D01*
X146304000Y-69864883D01*
X145832917Y-69958587D01*
X145433552Y-70225435D01*
X145166704Y-70624800D01*
X145073000Y-71095883D01*
X144995000Y-71095883D01*
X144901296Y-70624800D01*
X144634448Y-70225435D01*
X144235083Y-69958587D01*
X143764000Y-69864883D01*
X143292917Y-69958587D01*
X142893552Y-70225435D01*
X142626704Y-70624800D01*
X142533000Y-71095883D01*
X142462464Y-71095883D01*
X142462464Y-70270000D01*
X142435897Y-70128810D01*
X142352454Y-69999135D01*
X142225134Y-69912141D01*
X142074000Y-69881536D01*
X140374000Y-69881536D01*
X140232810Y-69908103D01*
X140103135Y-69991546D01*
X140016141Y-70118866D01*
X139985536Y-70270000D01*
X137557481Y-70270000D01*
X137629685Y-70096115D01*
X137630046Y-69681778D01*
X150393283Y-69681778D01*
X150423655Y-70170915D01*
X150552407Y-70481750D01*
X150732326Y-70576069D01*
X151458395Y-69850000D01*
X151817605Y-69850000D01*
X152543674Y-70576069D01*
X152723593Y-70481750D01*
X152882717Y-70018222D01*
X152852345Y-69529085D01*
X152723593Y-69218250D01*
X152543674Y-69123931D01*
X151817605Y-69850000D01*
X151458395Y-69850000D01*
X150732326Y-69123931D01*
X150552407Y-69218250D01*
X150393283Y-69681778D01*
X137630046Y-69681778D01*
X137630113Y-69606035D01*
X137442963Y-69153097D01*
X137234557Y-68944326D01*
X150911931Y-68944326D01*
X151638000Y-69670395D01*
X152364069Y-68944326D01*
X152269750Y-68764407D01*
X151806222Y-68605283D01*
X151317085Y-68635655D01*
X151006250Y-68764407D01*
X150911931Y-68944326D01*
X137234557Y-68944326D01*
X137096726Y-68806255D01*
X136644115Y-68618315D01*
X136154035Y-68617887D01*
X135701097Y-68805037D01*
X135354255Y-69151274D01*
X135166315Y-69603885D01*
X135165887Y-70093965D01*
X129488000Y-70093965D01*
X129488000Y-66432316D01*
X130606657Y-66432316D01*
X130907611Y-67160680D01*
X131464389Y-67718431D01*
X132192226Y-68020655D01*
X132980316Y-68021343D01*
X133708680Y-67720389D01*
X134266431Y-67163611D01*
X134568655Y-66435774D01*
X134568658Y-66432316D01*
X153720657Y-66432316D01*
X154021611Y-67160680D01*
X154578389Y-67718431D01*
X155306226Y-68020655D01*
X156094316Y-68021343D01*
X156822680Y-67720389D01*
X157380431Y-67163611D01*
X157682655Y-66435774D01*
X157683343Y-65647684D01*
X157382389Y-64919320D01*
X156825611Y-64361569D01*
X156097774Y-64059345D01*
X155309684Y-64058657D01*
X154581320Y-64359611D01*
X154023569Y-64916389D01*
X153721345Y-65644226D01*
X153720657Y-66432316D01*
X134568658Y-66432316D01*
X134569343Y-65647684D01*
X134268389Y-64919320D01*
X133711611Y-64361569D01*
X132983774Y-64059345D01*
X132195684Y-64058657D01*
X131467320Y-64359611D01*
X130909569Y-64916389D01*
X130607345Y-65644226D01*
X130606657Y-66432316D01*
X129488000Y-66432316D01*
X129488000Y-62940000D01*
X158802000Y-62940000D01*
X158802000Y-109780000D01*
M02*
